<?xml version="1.0" encoding="UTF-8" standalone="no"?><!DOCTYPE svg PUBLIC "-//W3C//DTD SVG 1.1//EN" "http://www.w3.org/Graphics/SVG/1.1/DTD/svg11.dtd"><svg width="100%" height="100%" viewBox="0 0 1373 1286" version="1.1" xmlns="http://www.w3.org/2000/svg" xmlns:xlink="http://www.w3.org/1999/xlink" xml:space="preserve" xmlns:serif="http://www.serif.com/" style="fill-rule:evenodd;clip-rule:evenodd;stroke-linejoin:round;stroke-miterlimit:2;"><g id="Background"><path d="M140.484,893.59c-303.43,-348.887 -73.781,-819.522 294.066,-883.627c31.509,-5.491 71.148,-12.399 399.69,-9.111c301.37,3.016 473.695,213.905 521.463,406.932c18.046,72.922 15.808,73.952 15.808,779.32c0,13.494 12.556,109.292 -50.098,97.534c-19.823,-3.72 -320.504,-202.609 -345.087,-215.093c-4.643,-2.358 -4.995,-2.018 -217.08,-2.018c-250.176,-0 -431.047,23.868 -618.761,-173.938l742.178,-600.474c-24.398,-14.83 -26.591,-12.762 -356.75,-10.161c-68.608,0.541 -60.265,71.552 -20.82,83.27c19.972,5.933 318.189,2.304 345.855,1.968c27.661,-0.337 70.974,-27.014 31.714,-75.077l-742.178,600.474l345.825,-400.339c-25.44,36.73 -8.019,71.275 39.606,71.762c27.354,0.28 324.629,3.318 341.933,-2.044c34.256,-10.613 54.603,-82.179 -25.269,-82.941c-330.901,-3.157 -333.432,-3.863 -356.27,13.222l-345.825,400.339l345.825,-204.506c-25.444,36.736 -8.013,71.275 39.606,71.762c27.354,0.28 324.629,3.318 341.933,-2.044c34.25,-10.611 54.606,-82.179 -25.269,-82.941c-330.901,-3.157 -333.432,-3.863 -356.27,13.222l-345.825,204.506Z" style="fill:#fff;fill-opacity:1;"/></g></svg>