<?xml version="1.0" encoding="UTF-8" standalone="no"?><!DOCTYPE svg PUBLIC "-//W3C//DTD SVG 1.1//EN" "http://www.w3.org/Graphics/SVG/1.1/DTD/svg11.dtd"><svg width="100%" height="100%" viewBox="0 0 1309 1920" version="1.1" xmlns="http://www.w3.org/2000/svg" xmlns:xlink="http://www.w3.org/1999/xlink" xml:space="preserve" xmlns:serif="http://www.serif.com/" style="fill-rule:evenodd;clip-rule:evenodd;stroke-linejoin:round;stroke-miterlimit:2;"><g id="Background"><path d="M891.348,968.688c-0.351,-1.057 -0.94,-2.025 -1.291,-3.082c-8.6,-25.922 31.989,-28.374 28.627,-3.83c-2.131,15.559 -19.122,14.126 -23.846,10.51c-1.327,-1.016 -2.163,-2.583 -3.49,-3.598Z"/><path d="M1058.015,968.688c-0.35,-1.057 -0.941,-2.025 -1.291,-3.082c-8.574,-25.869 31.996,-28.417 28.627,-3.83c-2.132,15.561 -19.124,14.125 -23.846,10.51c-1.327,-1.016 -2.163,-2.583 -3.49,-3.598Z"/><path d="M391.294,968.727c-0.353,-1.061 -0.938,-2.036 -1.291,-3.098c-4.164,-12.52 3.567,-20.024 11.71,-21.039c22.783,-2.839 22.084,32.953 -0.001,30.133c-6.223,-0.795 -6.039,-1.511 -10.417,-5.997Z"/><path d="M79.523,1305.597c-1.779,0.635 -6.916,4.251 -15.04,1.443c-14.723,-5.089 -11.048,-31.617 8.184,-29.104c10.219,1.335 17.69,12.962 8.658,25.84c-0.49,0.699 -1.312,1.122 -1.802,1.821Z"/><path d="M557.961,968.727c-0.353,-1.061 -0.938,-2.036 -1.291,-3.098c-4.218,-12.682 3.797,-20.031 11.709,-21.033c22.746,-2.881 22.113,32.952 -0,30.128c-6.223,-0.795 -6.039,-1.511 -10.417,-5.997Z"/><path d="M1224.682,968.689c-0.344,-1.059 -0.939,-2.025 -1.283,-3.083c-8.443,-25.961 31.975,-28.334 28.619,-3.83c-2.131,15.558 -19.122,14.126 -23.846,10.51c-1.327,-1.015 -2.163,-2.582 -3.49,-3.598Z"/><path d="M891.348,802.023c-0.345,-1.058 -0.939,-2.025 -1.283,-3.083c-7.745,-23.794 26.578,-28.732 28.656,-8.057c1.711,17.027 -16.779,20.175 -23.883,14.738c-1.327,-1.016 -2.163,-2.582 -3.49,-3.598Z"/><path d="M891.348,1135.356c-0.345,-1.058 -0.939,-2.025 -1.283,-3.083c-7.745,-23.794 26.578,-28.732 28.656,-8.057c1.711,17.027 -16.779,20.175 -23.883,14.738c-1.327,-1.016 -2.163,-2.582 -3.49,-3.598Z"/><path d="M891.348,1302.023c-0.345,-1.058 -0.939,-2.025 -1.283,-3.083c-7.745,-23.794 26.578,-28.732 28.656,-8.057c1.711,17.027 -16.779,20.175 -23.883,14.738c-1.327,-1.016 -2.163,-2.582 -3.49,-3.598Z"/><path d="M891.348,1468.689c-0.345,-1.058 -0.939,-2.025 -1.283,-3.083c-7.745,-23.794 26.578,-28.732 28.656,-8.057c1.711,17.027 -16.779,20.175 -23.883,14.738c-1.327,-1.016 -2.163,-2.582 -3.49,-3.598Z"/><path d="M891.348,1635.356c-0.345,-1.058 -0.939,-2.025 -1.283,-3.083c-7.745,-23.794 26.578,-28.732 28.656,-8.057c1.711,17.027 -16.779,20.175 -23.883,14.738c-1.327,-1.016 -2.163,-2.582 -3.49,-3.598Z"/><path d="M1058.015,802.023c-0.344,-1.059 -0.939,-2.025 -1.283,-3.083c-7.72,-23.738 26.586,-28.777 28.656,-8.057c1.703,17.051 -16.794,20.164 -23.883,14.738c-1.327,-1.015 -2.163,-2.582 -3.49,-3.598Z"/><path d="M1058.015,1135.356c-0.344,-1.059 -0.939,-2.025 -1.283,-3.083c-7.72,-23.738 26.586,-28.777 28.656,-8.057c1.703,17.051 -16.794,20.164 -23.883,14.738c-1.327,-1.015 -2.163,-2.582 -3.49,-3.598Z"/><path d="M1058.015,1635.356c-0.344,-1.059 -0.939,-2.025 -1.283,-3.083c-7.72,-23.738 26.586,-28.777 28.656,-8.057c1.703,17.051 -16.794,20.164 -23.883,14.738c-1.327,-1.015 -2.163,-2.582 -3.49,-3.598Z"/><path d="M246.195,972.263c-1.735,0.617 -6.903,4.237 -15.039,1.431c-12.468,-4.301 -12.72,-27.034 3.89,-29.103c12.348,-1.539 23.305,11.343 12.954,25.863c-0.494,0.694 -1.31,1.116 -1.805,1.809Z"/><path d="M1224.682,802.023c-0.344,-1.059 -0.939,-2.025 -1.283,-3.083c-7.722,-23.745 26.576,-28.757 28.656,-8.057c1.711,17.027 -16.779,20.176 -23.883,14.738c-1.327,-1.015 -2.163,-2.582 -3.49,-3.598Z"/><path d="M1224.682,1135.356c-0.344,-1.059 -0.939,-2.025 -1.283,-3.083c-7.722,-23.745 26.576,-28.757 28.656,-8.057c1.711,17.027 -16.779,20.176 -23.883,14.738c-1.327,-1.015 -2.163,-2.582 -3.49,-3.598Z"/><path d="M724.635,968.719c-0.348,-1.061 -0.939,-2.032 -1.287,-3.093c-4.067,-12.4 3.61,-19.988 11.696,-21.029c22.709,-2.923 22.134,32.966 0,30.126c-6.227,-0.799 -6.037,-1.525 -10.409,-6.005Z"/><path d="M246.195,472.263c-1.736,0.617 -6.903,4.237 -15.039,1.431c-12.435,-4.289 -12.669,-27.041 3.89,-29.103c12.35,-1.538 23.304,11.344 12.954,25.863c-0.494,0.694 -1.31,1.116 -1.805,1.809Z"/><path d="M246.195,638.93c-1.736,0.617 -6.903,4.237 -15.039,1.431c-12.435,-4.289 -12.669,-27.041 3.89,-29.103c12.35,-1.538 23.304,11.344 12.954,25.863c-0.494,0.694 -1.31,1.116 -1.805,1.809Z"/><path d="M246.195,805.597c-1.736,0.617 -6.903,4.237 -15.039,1.431c-12.435,-4.289 -12.669,-27.041 3.89,-29.103c12.35,-1.538 23.304,11.344 12.954,25.863c-0.494,0.694 -1.31,1.116 -1.805,1.809Z"/><path d="M246.195,1138.93c-1.736,0.617 -6.903,4.237 -15.039,1.431c-12.435,-4.289 -12.669,-27.041 3.89,-29.103c12.35,-1.538 23.304,11.344 12.954,25.863c-0.494,0.694 -1.31,1.116 -1.805,1.809Z"/><path d="M246.195,1305.597c-1.736,0.617 -6.903,4.237 -15.039,1.431c-12.435,-4.289 -12.669,-27.041 3.89,-29.103c12.35,-1.538 23.304,11.344 12.954,25.863c-0.494,0.694 -1.31,1.116 -1.805,1.809Z"/><path d="M391.295,302.062c-0.341,-1.064 -0.935,-2.036 -1.276,-3.1c-3.669,-11.455 2.471,-19.89 11.693,-21.038c22.735,-2.831 22.065,32.951 -0.001,30.133c-6.221,-0.794 -6.038,-1.51 -10.417,-5.995Z"/><path d="M391.295,468.729c-0.341,-1.064 -0.935,-2.036 -1.276,-3.1c-3.669,-11.455 2.471,-19.89 11.693,-21.038c22.735,-2.831 22.065,32.951 -0.001,30.133c-6.221,-0.794 -6.038,-1.51 -10.417,-5.995Z"/><path d="M391.295,635.396c-0.341,-1.064 -0.935,-2.036 -1.276,-3.1c-3.669,-11.455 2.471,-19.89 11.693,-21.038c22.735,-2.831 22.065,32.951 -0.001,30.133c-6.221,-0.794 -6.038,-1.51 -10.417,-5.995Z"/><path d="M391.295,802.062c-0.341,-1.064 -0.935,-2.036 -1.276,-3.1c-3.669,-11.455 2.471,-19.89 11.693,-21.038c22.735,-2.831 22.065,32.951 -0.001,30.133c-6.221,-0.794 -6.038,-1.51 -10.417,-5.995Z"/><path d="M391.295,1135.396c-0.341,-1.064 -0.935,-2.036 -1.276,-3.1c-3.669,-11.455 2.471,-19.89 11.693,-21.038c22.735,-2.831 22.065,32.951 -0.001,30.133c-6.221,-0.794 -6.038,-1.51 -10.417,-5.995Z"/><path d="M391.295,1302.062c-0.341,-1.064 -0.935,-2.036 -1.276,-3.1c-3.669,-11.455 2.471,-19.89 11.693,-21.038c22.735,-2.831 22.065,32.951 -0.001,30.133c-6.221,-0.794 -6.038,-1.51 -10.417,-5.995Z"/><path d="M557.961,302.062c-0.341,-1.064 -0.935,-2.036 -1.276,-3.1c-3.724,-11.626 2.688,-19.893 11.693,-21.033c22.698,-2.873 22.093,32.949 -0,30.128c-6.221,-0.794 -6.038,-1.51 -10.417,-5.995Z"/><path d="M557.961,468.729c-0.341,-1.064 -0.935,-2.036 -1.276,-3.1c-3.724,-11.626 2.688,-19.893 11.693,-21.033c22.698,-2.873 22.093,32.949 -0,30.128c-6.221,-0.794 -6.038,-1.51 -10.417,-5.995Z"/><path d="M557.961,635.396c-0.341,-1.064 -0.935,-2.036 -1.276,-3.1c-3.724,-11.626 2.688,-19.893 11.693,-21.033c22.698,-2.873 22.093,32.949 -0,30.128c-6.221,-0.794 -6.038,-1.51 -10.417,-5.995Z"/><path d="M557.961,802.062c-0.341,-1.064 -0.935,-2.036 -1.276,-3.1c-3.724,-11.626 2.688,-19.893 11.693,-21.033c22.698,-2.873 22.093,32.949 -0,30.128c-6.221,-0.794 -6.038,-1.51 -10.417,-5.995Z"/><path d="M557.961,1135.396c-0.341,-1.064 -0.935,-2.036 -1.276,-3.1c-3.724,-11.626 2.688,-19.893 11.693,-21.033c22.698,-2.873 22.093,32.949 -0,30.128c-6.221,-0.794 -6.038,-1.51 -10.417,-5.995Z"/><path d="M557.961,1302.062c-0.341,-1.064 -0.935,-2.036 -1.276,-3.1c-3.724,-11.626 2.688,-19.893 11.693,-21.033c22.698,-2.873 22.093,32.949 -0,30.128c-6.221,-0.794 -6.038,-1.51 -10.417,-5.995Z"/><path d="M557.961,1468.729c-0.341,-1.064 -0.935,-2.036 -1.276,-3.1c-3.724,-11.626 2.688,-19.893 11.693,-21.033c22.698,-2.873 22.093,32.949 -0,30.128c-6.221,-0.794 -6.038,-1.51 -10.417,-5.995Z"/><path d="M724.636,135.387c-0.342,-1.062 -0.937,-2.032 -1.279,-3.094c-3.823,-11.877 3.061,-19.919 11.688,-21.029c22.66,-2.916 22.115,32.963 0,30.126c-6.226,-0.799 -6.036,-1.524 -10.409,-6.004Z"/><path d="M724.636,635.387c-0.342,-1.062 -0.937,-2.032 -1.279,-3.094c-3.823,-11.877 3.061,-19.919 11.688,-21.029c22.66,-2.916 22.115,32.963 0,30.126c-6.226,-0.799 -6.036,-1.524 -10.409,-6.004Z"/><path d="M724.636,802.053c-0.342,-1.062 -0.937,-2.032 -1.279,-3.094c-3.823,-11.877 3.061,-19.919 11.688,-21.029c22.66,-2.916 22.115,32.963 0,30.126c-6.226,-0.799 -6.036,-1.524 -10.409,-6.004Z"/><path d="M724.636,1135.387c-0.342,-1.062 -0.937,-2.032 -1.279,-3.094c-3.823,-11.877 3.061,-19.919 11.688,-21.029c22.66,-2.916 22.115,32.963 0,30.126c-6.226,-0.799 -6.036,-1.524 -10.409,-6.004Z"/><path d="M724.636,1302.053c-0.342,-1.062 -0.937,-2.032 -1.279,-3.094c-3.823,-11.877 3.061,-19.919 11.688,-21.029c22.66,-2.916 22.115,32.963 0,30.126c-6.226,-0.799 -6.036,-1.524 -10.409,-6.004Z"/><path d="M724.636,1468.72c-0.342,-1.062 -0.937,-2.032 -1.279,-3.094c-3.823,-11.877 3.061,-19.919 11.688,-21.029c22.66,-2.916 22.115,32.963 0,30.126c-6.226,-0.799 -6.036,-1.524 -10.409,-6.004Z"/><path d="M724.636,1635.387c-0.342,-1.062 -0.937,-2.032 -1.279,-3.094c-3.823,-11.877 3.061,-19.919 11.688,-21.029c22.66,-2.916 22.115,32.963 0,30.126c-6.226,-0.799 -6.036,-1.524 -10.409,-6.004Z"/><path d="M282.539,526.615c-0.486,-0.82 -1.299,-1.414 -1.784,-2.234c-7.11,-12.008 -0.592,-22.759 8.71,-24.127c21.985,-3.234 22.843,24.399 8.41,28.953c-7.837,2.473 -7.937,0.865 -15.336,-2.593Z"/><path d="M449.206,193.281c-0.485,-0.821 -1.3,-1.413 -1.785,-2.234c-7.017,-11.879 -0.527,-22.75 8.713,-24.124c21.9,-3.257 22.952,24.363 8.408,28.95c-7.837,2.472 -7.936,0.866 -15.336,-2.592Z"/><path d="M449.206,359.948c-0.485,-0.821 -1.3,-1.413 -1.785,-2.234c-7.017,-11.879 -0.527,-22.75 8.713,-24.124c21.9,-3.257 22.952,24.363 8.408,28.95c-7.837,2.472 -7.936,0.866 -15.336,-2.592Z"/><path d="M449.206,526.615c-0.485,-0.821 -1.3,-1.413 -1.785,-2.234c-7.017,-11.879 -0.527,-22.75 8.713,-24.124c21.9,-3.257 22.952,24.363 8.408,28.95c-7.837,2.472 -7.936,0.866 -15.336,-2.592Z"/><path d="M249.628,506.353c2.67,6.608 3.589,6.738 1.603,13.542c-4.945,16.938 -32.539,11.162 -28.952,-8.214c2.221,-12 17.498,-14.615 25.258,-8.196c0.912,0.754 1.18,2.113 2.092,2.867Z"/><path d="M916.255,1079.614c-0.871,0.795 -1.201,2.072 -2.072,2.867c-5.848,5.338 -22.197,5.525 -24.941,-8.231c-4.785,-23.988 34.062,-24.03 29.265,0.008c-0.091,0.456 -0.167,0.397 -2.253,5.357Z"/><path d="M916.255,1246.281c-0.871,0.795 -1.201,2.072 -2.072,2.867c-5.848,5.338 -22.197,5.525 -24.941,-8.231c-4.785,-23.988 34.062,-24.03 29.265,0.008c-0.091,0.456 -0.167,0.397 -2.253,5.357Z"/><path d="M916.255,1412.947c-0.871,0.795 -1.201,2.072 -2.072,2.867c-5.848,5.338 -22.197,5.525 -24.941,-8.231c-4.785,-23.988 34.062,-24.03 29.265,0.008c-0.091,0.456 -0.167,0.397 -2.253,5.357Z"/><path d="M916.255,1579.614c-0.871,0.795 -1.201,2.072 -2.072,2.867c-5.848,5.338 -22.197,5.525 -24.941,-8.231c-4.785,-23.988 34.062,-24.03 29.265,0.008c-0.091,0.456 -0.167,0.397 -2.253,5.357Z"/><path d="M582.961,173.02c2.67,6.608 3.587,6.739 1.602,13.542c-4.973,17.046 -32.463,11.058 -28.95,-8.213c2.175,-11.931 17.449,-14.654 25.256,-8.197c0.912,0.754 1.18,2.113 2.092,2.867Z"/><path d="M582.961,339.687c2.67,6.608 3.587,6.739 1.602,13.542c-4.973,17.046 -32.463,11.058 -28.95,-8.213c2.175,-11.931 17.449,-14.654 25.256,-8.197c0.912,0.754 1.18,2.113 2.092,2.867Z"/><path d="M582.961,506.353c2.67,6.608 3.587,6.739 1.602,13.542c-4.973,17.046 -32.463,11.058 -28.95,-8.213c2.175,-11.931 17.449,-14.654 25.256,-8.197c0.912,0.754 1.18,2.113 2.092,2.867Z"/><path d="M617.162,947.316c0.652,-0.296 1.116,-0.924 1.768,-1.219c9.19,-4.171 20.889,0.462 21.984,11.301c2.366,23.408 -32.43,22.21 -29.498,0.299c1.07,-7.993 5.641,-10.257 5.745,-10.38Z" style="fill-opacity:1;"/><path d="M416.294,339.687c2.67,6.608 3.587,6.739 1.602,13.542c-4.976,17.057 -32.457,11.027 -28.95,-8.213c2.175,-11.931 17.449,-14.654 25.256,-8.197c0.912,0.754 1.18,2.113 2.092,2.867Z"/><path d="M416.294,506.353c2.67,6.608 3.587,6.739 1.602,13.542c-4.976,17.057 -32.457,11.027 -28.95,-8.213c2.175,-11.931 17.449,-14.654 25.256,-8.197c0.912,0.754 1.18,2.113 2.092,2.867Z"/><path d="M1023.878,947.316c0.028,0.033 4.724,2.449 5.799,10.376c2.951,21.766 -31.847,23.168 -29.536,-0.285c1.069,-10.844 12.762,-15.474 21.973,-11.305c0.65,0.294 1.114,0.92 1.764,1.214Z" style="fill-opacity:1;"/><path d="M617.162,280.649c0.652,-0.296 1.116,-0.924 1.768,-1.219c8.904,-4.042 20.783,0.104 21.925,11.308c2.399,23.527 -32.359,22.122 -29.439,0.292c1.07,-7.993 5.641,-10.257 5.745,-10.38Z" style="fill-opacity:1;"/><path d="M617.162,447.316c0.652,-0.296 1.116,-0.924 1.768,-1.219c8.904,-4.042 20.783,0.104 21.925,11.308c2.399,23.527 -32.359,22.122 -29.439,0.292c1.07,-7.993 5.641,-10.257 5.745,-10.38Z" style="fill-opacity:1;"/><path d="M617.162,613.983c0.652,-0.296 1.116,-0.924 1.768,-1.219c8.904,-4.042 20.783,0.104 21.925,11.308c2.399,23.527 -32.359,22.122 -29.439,0.292c1.07,-7.993 5.641,-10.257 5.745,-10.38Z" style="fill-opacity:1;"/><path d="M617.162,780.649c0.652,-0.296 1.116,-0.924 1.768,-1.219c8.904,-4.042 20.783,0.104 21.925,11.308c2.399,23.527 -32.359,22.122 -29.439,0.292c1.07,-7.993 5.641,-10.257 5.745,-10.38Z" style="fill-opacity:1;"/><path d="M617.162,1113.983c0.652,-0.296 1.116,-0.924 1.768,-1.219c8.904,-4.042 20.783,0.104 21.925,11.308c2.399,23.527 -32.359,22.122 -29.439,0.292c1.07,-7.993 5.641,-10.257 5.745,-10.38Z" style="fill-opacity:1;"/><path d="M617.162,1280.649c0.652,-0.296 1.116,-0.924 1.768,-1.219c8.904,-4.042 20.783,0.104 21.925,11.308c2.399,23.527 -32.359,22.122 -29.439,0.292c1.07,-7.993 5.641,-10.257 5.745,-10.38Z" style="fill-opacity:1;"/><path d="M617.162,1447.316c0.652,-0.296 1.116,-0.924 1.768,-1.219c8.904,-4.042 20.783,0.104 21.925,11.308c2.399,23.527 -32.359,22.122 -29.439,0.292c1.07,-7.993 5.641,-10.257 5.745,-10.38Z" style="fill-opacity:1;"/><path d="M617.162,1613.983c0.652,-0.296 1.116,-0.924 1.768,-1.219c8.904,-4.042 20.783,0.104 21.925,11.308c2.399,23.527 -32.359,22.122 -29.439,0.292c1.07,-7.993 5.641,-10.257 5.745,-10.38Z" style="fill-opacity:1;"/><path d="M615.879,193.282c-0.48,-0.826 -1.297,-1.422 -1.777,-2.247c-6.578,-11.321 -0.877,-22.688 8.698,-24.111c21.781,-3.238 23.193,24.381 8.406,28.959c-7.819,2.421 -7.919,0.865 -15.327,-2.6Z"/><path d="M615.879,359.949c-0.48,-0.826 -1.297,-1.422 -1.777,-2.247c-6.578,-11.321 -0.877,-22.688 8.698,-24.111c21.781,-3.238 23.193,24.381 8.406,28.959c-7.819,2.421 -7.919,0.865 -15.327,-2.6Z"/><path d="M615.879,526.615c-0.48,-0.826 -1.297,-1.422 -1.777,-2.247c-6.578,-11.321 -0.877,-22.688 8.698,-24.111c21.781,-3.238 23.193,24.381 8.406,28.959c-7.819,2.421 -7.919,0.865 -15.327,-2.6Z"/><path d="M690.542,947.352c0.106,0.127 4.668,2.448 5.709,10.34c2.878,21.819 -31.778,23.243 -29.471,-0.286c1.078,-10.998 12.989,-15.422 21.988,-11.291c0.655,0.301 1.119,0.936 1.774,1.237Z" style="fill-opacity:1;"/><path d="M690.542,114.019c0.106,0.127 4.668,2.448 5.709,10.34c2.878,21.821 -31.777,23.24 -29.472,-0.286c1.077,-10.986 12.98,-15.427 21.989,-11.291c0.655,0.301 1.119,0.936 1.774,1.237Z" style="fill-opacity:1;"/><path d="M690.542,280.685c0.106,0.127 4.668,2.448 5.709,10.34c2.878,21.821 -31.777,23.24 -29.472,-0.286c1.077,-10.986 12.98,-15.427 21.989,-11.291c0.655,0.301 1.119,0.936 1.774,1.237Z" style="fill-opacity:1;"/><path d="M690.542,447.352c0.106,0.127 4.668,2.448 5.709,10.34c2.878,21.821 -31.777,23.24 -29.472,-0.286c1.077,-10.986 12.98,-15.427 21.989,-11.291c0.655,0.301 1.119,0.936 1.774,1.237Z" style="fill-opacity:1;"/><path d="M690.542,614.019c0.106,0.127 4.668,2.448 5.709,10.34c2.878,21.821 -31.777,23.24 -29.472,-0.286c1.077,-10.986 12.98,-15.427 21.989,-11.291c0.655,0.301 1.119,0.936 1.774,1.237Z" style="fill-opacity:1;"/><path d="M690.542,780.685c0.106,0.127 4.668,2.448 5.709,10.34c2.878,21.821 -31.777,23.24 -29.472,-0.286c1.077,-10.986 12.98,-15.427 21.989,-11.291c0.655,0.301 1.119,0.936 1.774,1.237Z" style="fill-opacity:1;"/><path d="M690.542,1114.019c0.106,0.127 4.668,2.448 5.709,10.34c2.878,21.821 -31.777,23.24 -29.472,-0.286c1.077,-10.986 12.98,-15.427 21.989,-11.291c0.655,0.301 1.119,0.936 1.774,1.237Z" style="fill-opacity:1;"/><path d="M690.542,1280.685c0.106,0.127 4.668,2.448 5.709,10.34c2.878,21.821 -31.777,23.24 -29.472,-0.286c1.077,-10.986 12.98,-15.427 21.989,-11.291c0.655,0.301 1.119,0.936 1.774,1.237Z" style="fill-opacity:1;"/><path d="M690.542,1447.352c0.106,0.127 4.668,2.448 5.709,10.34c2.878,21.821 -31.777,23.24 -29.472,-0.286c1.077,-10.986 12.98,-15.427 21.989,-11.291c0.655,0.301 1.119,0.936 1.774,1.237Z" style="fill-opacity:1;"/><path d="M690.542,1614.019c0.106,0.127 4.668,2.448 5.709,10.34c2.878,21.821 -31.777,23.24 -29.472,-0.286c1.077,-10.986 12.98,-15.427 21.989,-11.291c0.655,0.301 1.119,0.936 1.774,1.237Z" style="fill-opacity:1;"/><path d="M1190.545,947.316c0.028,0.033 4.724,2.449 5.799,10.376c2.954,21.783 -31.868,23.151 -29.536,-0.286c1.063,-10.684 12.715,-15.494 21.973,-11.304c0.65,0.294 1.114,0.92 1.764,1.214Z" style="fill-opacity:1;"/><path d="M783.828,947.316c0.652,-0.296 1.116,-0.924 1.768,-1.219c9.089,-4.126 20.849,0.335 21.96,11.304c2.366,23.363 -32.403,22.19 -29.474,0.296c1.07,-7.993 5.641,-10.257 5.745,-10.38Z" style="fill-opacity:1;"/><path d="M749.628,506.353c2.67,6.608 3.587,6.739 1.602,13.542c-4.995,17.123 -32.489,10.899 -28.946,-8.213c2.159,-11.646 17.278,-14.793 25.253,-8.196c0.912,0.754 1.18,2.113 2.092,2.867Z"/><path d="M1082.922,1079.614c-0.871,0.795 -1.201,2.072 -2.072,2.867c-5.667,5.173 -22.092,5.794 -24.872,-8.245c-4.743,-23.954 33.999,-24.045 29.196,0.022c-0.091,0.456 -0.167,0.397 -2.253,5.357Z"/><path d="M1082.922,1246.281c-0.871,0.795 -1.201,2.072 -2.072,2.867c-5.667,5.173 -22.092,5.794 -24.872,-8.245c-4.743,-23.954 33.999,-24.045 29.196,0.022c-0.091,0.456 -0.167,0.397 -2.253,5.357Z"/><path d="M1082.922,1579.614c-0.871,0.795 -1.201,2.072 -2.072,2.867c-5.667,5.173 -22.092,5.794 -24.872,-8.245c-4.743,-23.954 33.999,-24.045 29.196,0.022c-0.091,0.456 -0.167,0.397 -2.253,5.357Z"/><path d="M283.829,947.302c0.65,-0.293 1.113,-0.917 1.763,-1.21c9.216,-4.161 20.881,0.564 21.952,11.317c2.33,23.393 -32.465,22.086 -29.521,0.281c1.075,-7.966 5.762,-10.335 5.806,-10.388Z" style="fill-opacity:1;"/><path d="M1117.212,947.386c0.647,-0.296 1.111,-0.916 1.758,-1.213c9.254,-4.233 20.891,0.393 21.965,11.228c2.329,23.497 -32.368,22.168 -29.474,0.29c1.046,-7.91 5.602,-10.132 5.751,-10.306Z" style="fill-opacity:1;"/><path d="M1117.212,780.719c0.647,-0.296 1.111,-0.916 1.758,-1.213c9.263,-4.237 20.894,0.404 21.966,11.228c2.327,23.494 -32.369,22.17 -29.475,0.29c1.046,-7.91 5.602,-10.132 5.751,-10.306Z" style="fill-opacity:1;"/><path d="M1117.212,1114.053c0.647,-0.296 1.111,-0.916 1.758,-1.213c9.263,-4.237 20.894,0.404 21.966,11.228c2.327,23.494 -32.369,22.17 -29.475,0.29c1.046,-7.91 5.602,-10.132 5.751,-10.306Z" style="fill-opacity:1;"/><path d="M783.828,780.649c0.652,-0.296 1.116,-0.924 1.768,-1.219c8.906,-4.042 20.783,0.106 21.925,11.308c2.388,23.435 -32.362,22.138 -29.439,0.292c1.07,-7.993 5.641,-10.257 5.745,-10.38Z" style="fill-opacity:1;"/><path d="M783.828,1113.983c0.652,-0.296 1.116,-0.924 1.768,-1.219c8.906,-4.042 20.783,0.106 21.925,11.308c2.388,23.435 -32.362,22.138 -29.439,0.292c1.07,-7.993 5.641,-10.257 5.745,-10.38Z" style="fill-opacity:1;"/><path d="M783.828,1280.649c0.652,-0.296 1.116,-0.924 1.768,-1.219c8.906,-4.042 20.783,0.106 21.925,11.308c2.388,23.435 -32.362,22.138 -29.439,0.292c1.07,-7.993 5.641,-10.257 5.745,-10.38Z" style="fill-opacity:1;"/><path d="M783.828,1447.316c0.652,-0.296 1.116,-0.924 1.768,-1.219c8.906,-4.042 20.783,0.106 21.925,11.308c2.388,23.435 -32.362,22.138 -29.439,0.292c1.07,-7.993 5.641,-10.257 5.745,-10.38Z" style="fill-opacity:1;"/><path d="M783.828,1613.983c0.652,-0.296 1.116,-0.924 1.768,-1.219c8.906,-4.042 20.783,0.106 21.925,11.308c2.388,23.435 -32.362,22.138 -29.439,0.292c1.07,-7.993 5.641,-10.257 5.745,-10.38Z" style="fill-opacity:1;"/><path d="M450.497,947.315c0.651,-0.296 1.115,-0.923 1.766,-1.219c9.147,-4.151 20.878,0.505 21.949,11.313c2.321,23.422 -32.491,22.05 -29.515,0.284c1.085,-7.932 5.766,-10.339 5.8,-10.379Z" style="fill-opacity:1;"/><path d="M950.5,947.351c0.656,-0.302 1.12,-0.939 1.776,-1.242c9.077,-4.179 20.87,0.394 21.971,11.287c2.361,23.362 -32.35,22.262 -29.453,0.295c1.04,-7.887 5.6,-10.215 5.705,-10.341Z" style="fill-opacity:1;"/><path d="M1023.88,780.65c0.105,0.125 4.679,2.382 5.749,10.38c2.921,21.833 -31.762,23.192 -29.427,-0.282c1.116,-11.223 13,-15.347 21.912,-11.313c0.651,0.295 1.115,0.92 1.766,1.215Z" style="fill-opacity:1;"/><path d="M1023.88,1113.983c0.105,0.125 4.679,2.382 5.749,10.38c2.921,21.833 -31.762,23.192 -29.427,-0.282c1.116,-11.223 13,-15.347 21.912,-11.313c0.651,0.295 1.115,0.92 1.766,1.215Z" style="fill-opacity:1;"/><path d="M1023.88,1280.65c0.105,0.125 4.679,2.382 5.749,10.38c2.921,21.833 -31.762,23.192 -29.427,-0.282c1.116,-11.223 13,-15.347 21.912,-11.313c0.651,0.295 1.115,0.92 1.766,1.215Z" style="fill-opacity:1;"/><path d="M1023.88,1447.317c0.105,0.125 4.679,2.382 5.749,10.38c2.921,21.833 -31.762,23.192 -29.427,-0.282c1.116,-11.223 13,-15.347 21.912,-11.313c0.651,0.295 1.115,0.92 1.766,1.215Z" style="fill-opacity:1;"/><path d="M1023.88,1613.983c0.105,0.125 4.679,2.382 5.749,10.38c2.921,21.833 -31.762,23.192 -29.427,-0.282c1.116,-11.223 13,-15.347 21.912,-11.313c0.651,0.295 1.115,0.92 1.766,1.215Z" style="fill-opacity:1;"/><path d="M1023.88,1780.65c0.105,0.125 4.679,2.382 5.749,10.38c2.921,21.833 -31.762,23.192 -29.427,-0.282c1.116,-11.223 13,-15.347 21.912,-11.313c0.651,0.295 1.115,0.92 1.766,1.215Z" style="fill-opacity:1;"/><path d="M857.208,947.352c0.078,0.093 4.657,2.454 5.745,10.35c2.99,21.707 -31.798,23.234 -29.479,-0.295c1.075,-10.904 12.866,-15.467 21.96,-11.292c0.655,0.301 1.119,0.936 1.774,1.237Z" style="fill-opacity:1;"/><path d="M691.815,193.238c-7.382,3.483 -7.483,5.075 -15.31,2.637c-14.713,-4.583 -13.506,-32.219 8.405,-28.945c9.869,1.475 15.076,13.104 8.678,24.089c-0.476,0.818 -1.296,1.401 -1.773,2.219Z"/><path d="M691.815,526.572c-7.382,3.483 -7.483,5.075 -15.31,2.637c-14.713,-4.583 -13.506,-32.219 8.405,-28.945c9.869,1.475 15.076,13.104 8.678,24.089c-0.476,0.818 -1.296,1.401 -1.773,2.219Z"/><path d="M523.839,947.384c0.146,0.172 4.699,2.406 5.744,10.308c2.882,21.781 -31.778,23.245 -29.471,-0.286c1.064,-10.852 12.759,-15.477 21.964,-11.243c0.649,0.299 1.113,0.922 1.762,1.221Z" style="fill-opacity:1;"/><path d="M523.839,280.718c0.146,0.172 4.699,2.406 5.744,10.308c2.882,21.782 -31.778,23.242 -29.472,-0.286c1.062,-10.841 12.75,-15.481 21.965,-11.243c0.649,0.299 1.113,0.922 1.762,1.221Z" style="fill-opacity:1;"/><path d="M523.839,447.384c0.146,0.172 4.699,2.406 5.744,10.308c2.882,21.782 -31.778,23.242 -29.472,-0.286c1.062,-10.841 12.75,-15.481 21.965,-11.243c0.649,0.299 1.113,0.922 1.762,1.221Z" style="fill-opacity:1;"/><path d="M523.839,614.051c0.146,0.172 4.699,2.406 5.744,10.308c2.882,21.782 -31.778,23.242 -29.472,-0.286c1.062,-10.841 12.75,-15.481 21.965,-11.243c0.649,0.299 1.113,0.922 1.762,1.221Z" style="fill-opacity:1;"/><path d="M523.839,780.718c0.146,0.172 4.699,2.406 5.744,10.308c2.882,21.782 -31.778,23.242 -29.472,-0.286c1.062,-10.841 12.75,-15.481 21.965,-11.243c0.649,0.299 1.113,0.922 1.762,1.221Z" style="fill-opacity:1;"/><path d="M523.839,1114.051c0.146,0.172 4.699,2.406 5.744,10.308c2.882,21.782 -31.778,23.242 -29.472,-0.286c1.062,-10.841 12.75,-15.481 21.965,-11.243c0.649,0.299 1.113,0.922 1.762,1.221Z" style="fill-opacity:1;"/><path d="M523.839,1280.718c0.146,0.172 4.699,2.406 5.744,10.308c2.882,21.782 -31.778,23.242 -29.472,-0.286c1.062,-10.841 12.75,-15.481 21.965,-11.243c0.649,0.299 1.113,0.922 1.762,1.221Z" style="fill-opacity:1;"/><path d="M523.839,1447.384c0.146,0.172 4.699,2.406 5.744,10.308c2.882,21.782 -31.778,23.242 -29.472,-0.286c1.062,-10.841 12.75,-15.481 21.965,-11.243c0.649,0.299 1.113,0.922 1.762,1.221Z" style="fill-opacity:1;"/><path d="M525.149,193.235c-7.39,3.466 -7.486,5.061 -15.308,2.639c-14.697,-4.552 -13.572,-32.262 8.397,-28.936c9.651,1.461 15.158,12.972 8.683,24.083c-0.476,0.817 -1.296,1.398 -1.772,2.215Z"/><path d="M525.149,359.901c-7.39,3.466 -7.486,5.061 -15.308,2.639c-14.697,-4.552 -13.572,-32.262 8.397,-28.936c9.651,1.461 15.158,12.972 8.683,24.083c-0.476,0.817 -1.296,1.398 -1.772,2.215Z"/><path d="M525.149,526.568c-7.39,3.466 -7.486,5.061 -15.308,2.639c-14.697,-4.552 -13.572,-32.262 8.397,-28.936c9.651,1.461 15.158,12.972 8.683,24.083c-0.476,0.817 -1.296,1.398 -1.772,2.215Z"/><path d="M857.208,780.685c0.078,0.093 4.657,2.454 5.745,10.35c2.981,21.642 -31.779,23.337 -29.432,-0.29c1.113,-11.202 13.052,-15.365 21.913,-11.297c0.655,0.301 1.119,0.936 1.774,1.237Z" style="fill-opacity:1;"/><path d="M857.208,1114.019c0.078,0.093 4.657,2.454 5.745,10.35c2.981,21.642 -31.779,23.337 -29.432,-0.29c1.113,-11.202 13.052,-15.365 21.913,-11.297c0.655,0.301 1.119,0.936 1.774,1.237Z" style="fill-opacity:1;"/><path d="M857.208,1280.685c0.078,0.093 4.657,2.454 5.745,10.35c2.981,21.642 -31.779,23.337 -29.432,-0.29c1.113,-11.202 13.052,-15.365 21.913,-11.297c0.655,0.301 1.119,0.936 1.774,1.237Z" style="fill-opacity:1;"/><path d="M857.208,1447.352c0.078,0.093 4.657,2.454 5.745,10.35c2.981,21.642 -31.779,23.337 -29.432,-0.29c1.113,-11.202 13.052,-15.365 21.913,-11.297c0.655,0.301 1.119,0.936 1.774,1.237Z" style="fill-opacity:1;"/><path d="M857.208,1614.019c0.078,0.093 4.657,2.454 5.745,10.35c2.981,21.642 -31.779,23.337 -29.432,-0.29c1.113,-11.202 13.052,-15.365 21.913,-11.297c0.655,0.301 1.119,0.936 1.774,1.237Z" style="fill-opacity:1;"/><path d="M282.423,1059.313c0.967,-0.437 1.775,-1.183 2.742,-1.62c10.265,-4.641 22.055,0.905 22.468,12.323c0.691,19.127 -25.663,22.277 -29.482,3.977c-1.65,-7.907 0.165,-7.782 4.272,-14.68Z"/><path d="M282.423,1225.98c0.967,-0.437 1.775,-1.183 2.742,-1.62c10.265,-4.641 22.055,0.905 22.468,12.323c0.691,19.127 -25.663,22.277 -29.482,3.977c-1.65,-7.907 0.165,-7.782 4.272,-14.68Z"/><path d="M282.423,1392.647c0.967,-0.437 1.775,-1.183 2.742,-1.62c10.265,-4.641 22.055,0.905 22.468,12.323c0.691,19.127 -25.663,22.277 -29.482,3.977c-1.65,-7.907 0.165,-7.782 4.272,-14.68Z"/><path d="M357.164,947.392c0.156,0.183 4.707,2.396 5.753,10.3c2.884,21.778 -31.778,23.247 -29.471,-0.286c1.06,-10.816 12.702,-15.491 21.959,-11.231c0.648,0.298 1.111,0.919 1.759,1.217Z" style="fill-opacity:1;"/><path d="M357.164,447.392c0.156,0.183 4.707,2.396 5.753,10.3c2.884,21.779 -31.778,23.244 -29.472,-0.286c1.059,-10.804 12.693,-15.495 21.96,-11.231c0.648,0.298 1.111,0.919 1.759,1.217Z" style="fill-opacity:1;"/><path d="M357.164,614.059c0.156,0.183 4.707,2.396 5.753,10.3c2.884,21.779 -31.778,23.244 -29.472,-0.286c1.059,-10.804 12.693,-15.495 21.96,-11.231c0.648,0.298 1.111,0.919 1.759,1.217Z" style="fill-opacity:1;"/><path d="M357.164,780.726c0.156,0.183 4.707,2.396 5.753,10.3c2.884,21.779 -31.778,23.244 -29.472,-0.286c1.059,-10.804 12.693,-15.495 21.96,-11.231c0.648,0.298 1.111,0.919 1.759,1.217Z" style="fill-opacity:1;"/><path d="M357.164,1114.059c0.156,0.183 4.707,2.396 5.753,10.3c2.884,21.779 -31.778,23.244 -29.472,-0.286c1.059,-10.804 12.693,-15.495 21.96,-11.231c0.648,0.298 1.111,0.919 1.759,1.217Z" style="fill-opacity:1;"/><path d="M357.164,1280.726c0.156,0.183 4.707,2.396 5.753,10.3c2.884,21.779 -31.778,23.244 -29.472,-0.286c1.059,-10.804 12.693,-15.495 21.96,-11.231c0.648,0.298 1.111,0.919 1.759,1.217Z" style="fill-opacity:1;"/><path d="M1190.547,780.65c0.105,0.125 4.679,2.382 5.749,10.38c2.923,21.85 -31.782,23.174 -29.427,-0.284c1.11,-11.053 12.941,-15.371 21.912,-11.311c0.651,0.295 1.115,0.921 1.766,1.215Z" style="fill-opacity:1;"/><path d="M1190.547,1113.983c0.105,0.125 4.679,2.382 5.749,10.38c2.923,21.85 -31.782,23.174 -29.427,-0.284c1.11,-11.053 12.941,-15.371 21.912,-11.311c0.651,0.295 1.115,0.921 1.766,1.215Z" style="fill-opacity:1;"/><path d="M950.5,780.685c0.656,-0.302 1.12,-0.939 1.776,-1.242c8.795,-4.049 20.764,0.038 21.912,11.295c2.394,23.481 -32.28,22.173 -29.393,0.287c1.04,-7.887 5.6,-10.215 5.705,-10.341Z" style="fill-opacity:1;"/><path d="M950.5,1114.018c0.656,-0.302 1.12,-0.939 1.776,-1.242c8.795,-4.049 20.764,0.038 21.912,11.295c2.394,23.481 -32.28,22.173 -29.393,0.287c1.04,-7.887 5.6,-10.215 5.705,-10.341Z" style="fill-opacity:1;"/><path d="M950.5,1280.685c0.656,-0.302 1.12,-0.939 1.776,-1.242c8.795,-4.049 20.764,0.038 21.912,11.295c2.394,23.481 -32.28,22.173 -29.393,0.287c1.04,-7.887 5.6,-10.215 5.705,-10.341Z" style="fill-opacity:1;"/><path d="M950.5,1447.351c0.656,-0.302 1.12,-0.939 1.776,-1.242c8.795,-4.049 20.764,0.038 21.912,11.295c2.394,23.481 -32.28,22.173 -29.393,0.287c1.04,-7.887 5.6,-10.215 5.705,-10.341Z" style="fill-opacity:1;"/><path d="M950.5,1614.018c0.656,-0.302 1.12,-0.939 1.776,-1.242c8.795,-4.049 20.764,0.038 21.912,11.295c2.394,23.481 -32.28,22.173 -29.393,0.287c1.04,-7.887 5.6,-10.215 5.705,-10.341Z" style="fill-opacity:1;"/><path d="M283.827,447.303c0.65,-0.294 1.114,-0.917 1.765,-1.211c9.038,-4.081 20.816,0.341 21.917,11.321c2.342,23.362 -32.355,22.189 -29.437,0.282c1.071,-8.038 5.633,-10.245 5.756,-10.391Z" style="fill-opacity:1;"/><path d="M283.827,613.97c0.65,-0.294 1.114,-0.917 1.765,-1.211c9.038,-4.081 20.816,0.341 21.917,11.321c2.342,23.362 -32.355,22.189 -29.437,0.282c1.071,-8.038 5.633,-10.245 5.756,-10.391Z" style="fill-opacity:1;"/><path d="M283.827,780.636c0.65,-0.294 1.114,-0.917 1.765,-1.211c9.038,-4.081 20.816,0.341 21.917,11.321c2.342,23.362 -32.355,22.189 -29.437,0.282c1.071,-8.038 5.633,-10.245 5.756,-10.391Z" style="fill-opacity:1;"/><path d="M283.827,1113.97c0.65,-0.294 1.114,-0.917 1.765,-1.211c9.038,-4.081 20.816,0.341 21.917,11.321c2.342,23.362 -32.355,22.189 -29.437,0.282c1.071,-8.038 5.633,-10.245 5.756,-10.391Z" style="fill-opacity:1;"/><path d="M283.827,1280.636c0.65,-0.294 1.114,-0.917 1.765,-1.211c9.038,-4.081 20.816,0.341 21.917,11.321c2.342,23.362 -32.355,22.189 -29.437,0.282c1.071,-8.038 5.633,-10.245 5.756,-10.391Z" style="fill-opacity:1;"/><path d="M858.482,26.572c-7.388,3.482 -7.489,5.066 -15.308,2.635c-14.787,-4.598 -13.382,-32.181 8.403,-28.943c9.842,1.463 15.087,13.083 8.677,24.089c-0.476,0.818 -1.296,1.401 -1.772,2.219Z"/><path d="M450.495,280.649c0.652,-0.296 1.116,-0.924 1.768,-1.219c8.969,-4.071 20.813,0.283 21.913,11.317c2.332,23.393 -32.382,22.153 -29.431,0.285c1.08,-8.004 5.637,-10.249 5.75,-10.383Z" style="fill-opacity:1;"/><path d="M450.495,447.316c0.652,-0.296 1.116,-0.924 1.768,-1.219c8.969,-4.071 20.813,0.283 21.913,11.317c2.332,23.393 -32.382,22.153 -29.431,0.285c1.08,-8.004 5.637,-10.249 5.75,-10.383Z" style="fill-opacity:1;"/><path d="M450.495,613.983c0.652,-0.296 1.116,-0.924 1.768,-1.219c8.969,-4.071 20.813,0.283 21.913,11.317c2.332,23.393 -32.382,22.153 -29.431,0.285c1.08,-8.004 5.637,-10.249 5.75,-10.383Z" style="fill-opacity:1;"/><path d="M450.495,780.649c0.652,-0.296 1.116,-0.924 1.768,-1.219c8.969,-4.071 20.813,0.283 21.913,11.317c2.332,23.393 -32.382,22.153 -29.431,0.285c1.08,-8.004 5.637,-10.249 5.75,-10.383Z" style="fill-opacity:1;"/><path d="M450.495,1113.983c0.652,-0.296 1.116,-0.924 1.768,-1.219c8.969,-4.071 20.813,0.283 21.913,11.317c2.332,23.393 -32.382,22.153 -29.431,0.285c1.08,-8.004 5.637,-10.249 5.75,-10.383Z" style="fill-opacity:1;"/><path d="M450.495,1280.649c0.652,-0.296 1.116,-0.924 1.768,-1.219c8.969,-4.071 20.813,0.283 21.913,11.317c2.332,23.393 -32.382,22.153 -29.431,0.285c1.08,-8.004 5.637,-10.249 5.75,-10.383Z" style="fill-opacity:1;"/><path d="M450.495,1447.316c0.652,-0.296 1.116,-0.924 1.768,-1.219c8.969,-4.071 20.813,0.283 21.913,11.317c2.332,23.393 -32.382,22.153 -29.431,0.285c1.08,-8.004 5.637,-10.249 5.75,-10.383Z" style="fill-opacity:1;"/><path d="M224.74,1079.653c-0.265,-0.625 -0.846,-1.082 -1.111,-1.707c-9.878,-23.274 27.309,-30.887 28.332,-7.878c0.733,16.489 -17.853,19.027 -25.138,12.453c-0.877,-0.792 -1.206,-2.077 -2.083,-2.869Z"/><path d="M224.74,1246.32c-0.265,-0.625 -0.846,-1.082 -1.111,-1.707c-9.878,-23.274 27.309,-30.887 28.332,-7.878c0.733,16.489 -17.853,19.027 -25.138,12.453c-0.877,-0.792 -1.206,-2.077 -2.083,-2.869Z"/><path d="M224.74,1412.986c-0.265,-0.625 -0.846,-1.082 -1.111,-1.707c-9.878,-23.274 27.309,-30.887 28.332,-7.878c0.733,16.489 -17.853,19.027 -25.138,12.453c-0.877,-0.792 -1.206,-2.077 -2.083,-2.869Z"/><path d="M391.424,1079.617c-0.255,-0.616 -0.82,-1.069 -1.076,-1.685c-9.766,-23.551 27.138,-30.708 28.322,-7.868c0.846,16.31 -17.854,19.13 -25.175,12.451c-0.877,-0.8 -1.194,-2.098 -2.072,-2.899Z"/><path d="M391.424,1246.284c-0.255,-0.616 -0.82,-1.069 -1.076,-1.685c-9.766,-23.551 27.138,-30.708 28.322,-7.868c0.846,16.31 -17.854,19.13 -25.175,12.451c-0.877,-0.8 -1.194,-2.098 -2.072,-2.899Z"/><path d="M391.424,1412.95c-0.255,-0.616 -0.82,-1.069 -1.076,-1.685c-9.766,-23.551 27.138,-30.708 28.322,-7.868c0.846,16.31 -17.854,19.13 -25.175,12.451c-0.877,-0.8 -1.194,-2.098 -2.072,-2.899Z"/><path d="M1283.875,780.725c0.649,-0.298 1.113,-0.921 1.763,-1.218c9.232,-4.23 20.89,0.348 21.965,11.229c2.321,23.482 -32.282,22.201 -29.411,0.302c1.042,-7.947 5.506,-10.102 5.683,-10.312Z" style="fill-opacity:1;"/><path d="M1283.875,1114.059c0.649,-0.298 1.113,-0.921 1.763,-1.218c9.232,-4.23 20.89,0.348 21.965,11.229c2.321,23.482 -32.282,22.201 -29.411,0.302c1.042,-7.947 5.506,-10.102 5.683,-10.312Z" style="fill-opacity:1;"/><path d="M358.482,526.568c-7.39,3.466 -7.486,5.061 -15.308,2.639c-14.733,-4.563 -13.475,-32.252 8.396,-28.934c9.676,1.468 15.15,12.985 8.684,24.081c-0.476,0.817 -1.296,1.398 -1.772,2.215Z"/><path d="M117.163,1280.631c0.649,-0.292 1.113,-0.914 1.761,-1.206c9.372,-4.225 20.758,0.705 21.882,11.313c2.453,23.149 -32.366,22.404 -29.426,0.282c1.071,-8.059 5.632,-10.213 5.782,-10.39Z" style="fill-opacity:1;"/><path d="M449.113,1059.325c0.962,-0.438 1.768,-1.176 2.73,-1.614c10.325,-4.695 22.048,0.943 22.457,12.305c0.687,19.084 -25.641,22.342 -29.437,3.969c-1.62,-7.84 0.111,-7.73 4.249,-14.66Z"/><path d="M449.113,1225.992c0.962,-0.438 1.768,-1.176 2.73,-1.614c10.325,-4.695 22.048,0.943 22.457,12.305c0.687,19.084 -25.641,22.342 -29.437,3.969c-1.62,-7.84 0.111,-7.73 4.249,-14.66Z"/><path d="M449.113,1392.659c0.962,-0.438 1.768,-1.176 2.73,-1.614c10.325,-4.695 22.048,0.943 22.457,12.305c0.687,19.084 -25.641,22.342 -29.437,3.969c-1.62,-7.84 0.111,-7.73 4.249,-14.66Z"/><path d="M58.073,1246.319c-0.183,-0.43 -2.283,-5.379 -2.283,-5.379c-4.242,-21.694 28.646,-25.005 29.497,-4.204c0.669,16.359 -17.758,19.119 -25.131,12.453c-0.877,-0.793 -1.206,-2.077 -2.083,-2.87Z"/><path d="M1249.588,1079.614c-0.871,0.795 -1.201,2.072 -2.072,2.867c-7.485,6.832 -25.915,3.731 -25.172,-12.416c1.048,-22.753 38.228,-15.659 28.338,7.855c-0.261,0.62 -0.835,1.074 -1.095,1.694Z"/><path d="M195.595,965.251c-0.215,0.279 -1.149,3.526 -5.093,6.596c-11.382,8.86 -28.542,-3.03 -22.767,-18.728c4.565,-12.406 30.195,-12.228 28.453,8.453c-0.104,1.238 -0.489,2.441 -0.593,3.679Z" style="fill-opacity:1;"/><path d="M558.09,1079.617c-0.255,-0.616 -0.82,-1.069 -1.076,-1.685c-9.788,-23.604 27.265,-30.665 28.279,-7.864c0.736,16.55 -17.939,19.009 -25.132,12.448c-0.877,-0.8 -1.194,-2.098 -2.072,-2.899Z"/><path d="M558.09,1246.284c-0.255,-0.616 -0.82,-1.069 -1.076,-1.685c-9.788,-23.604 27.265,-30.665 28.279,-7.864c0.736,16.55 -17.939,19.009 -25.132,12.448c-0.877,-0.8 -1.194,-2.098 -2.072,-2.899Z"/><path d="M558.09,1412.95c-0.255,-0.616 -0.82,-1.069 -1.076,-1.685c-9.788,-23.604 27.265,-30.665 28.279,-7.864c0.736,16.55 -17.939,19.009 -25.132,12.448c-0.877,-0.8 -1.194,-2.098 -2.072,-2.899Z"/><path d="M1282.47,1059.372c0.962,-0.438 1.779,-1.156 2.74,-1.594c10.588,-4.823 21.971,0.839 22.441,12.222c0.797,19.287 -25.688,22.26 -29.354,3.985c-1.58,-7.873 0.143,-7.754 4.173,-14.613Z"/><path d="M724.779,1079.615c-0.259,-0.618 -0.83,-1.073 -1.089,-1.691c-9.782,-23.364 27.125,-30.779 28.313,-7.859c0.842,16.245 -17.755,19.179 -25.153,12.428c-0.873,-0.797 -1.199,-2.081 -2.072,-2.877Z"/><path d="M724.779,1246.282c-0.259,-0.618 -0.83,-1.073 -1.089,-1.691c-9.782,-23.364 27.125,-30.779 28.313,-7.859c0.842,16.245 -17.755,19.179 -25.153,12.428c-0.873,-0.797 -1.199,-2.081 -2.072,-2.877Z"/><path d="M724.779,1412.948c-0.259,-0.618 -0.83,-1.073 -1.089,-1.691c-9.782,-23.364 27.125,-30.779 28.313,-7.859c0.842,16.245 -17.755,19.179 -25.153,12.428c-0.873,-0.797 -1.199,-2.081 -2.072,-2.877Z"/><path d="M724.779,1579.615c-0.259,-0.618 -0.83,-1.073 -1.089,-1.691c-9.782,-23.364 27.125,-30.779 28.313,-7.859c0.842,16.245 -17.755,19.179 -25.153,12.428c-0.873,-0.797 -1.199,-2.081 -2.072,-2.877Z"/><path d="M949.122,1059.325c0.96,-0.437 1.761,-1.176 2.721,-1.613c10.262,-4.673 21.997,0.872 22.476,12.288c0.804,19.183 -25.838,22.283 -29.375,4c-1.518,-7.848 0.151,-7.733 4.179,-14.675Z"/><path d="M949.122,1225.991c0.96,-0.437 1.761,-1.176 2.721,-1.613c10.262,-4.673 21.997,0.872 22.476,12.288c0.804,19.183 -25.838,22.283 -29.375,4c-1.518,-7.848 0.151,-7.733 4.179,-14.675Z"/><path d="M949.122,1392.658c0.96,-0.437 1.761,-1.176 2.721,-1.613c10.262,-4.673 21.997,0.872 22.476,12.288c0.804,19.183 -25.838,22.283 -29.375,4c-1.518,-7.848 0.151,-7.733 4.179,-14.675Z"/><path d="M949.122,1559.325c0.96,-0.437 1.761,-1.176 2.721,-1.613c10.262,-4.673 21.997,0.872 22.476,12.288c0.804,19.183 -25.838,22.283 -29.375,4c-1.518,-7.848 0.151,-7.733 4.179,-14.675Z"/><path d="M782.455,1059.325c0.96,-0.437 1.762,-1.176 2.722,-1.613c10.283,-4.683 22.041,0.904 22.457,12.304c0.701,19.199 -25.764,22.246 -29.39,3.976c-1.556,-7.841 0.144,-7.718 4.212,-14.667Z"/><path d="M782.455,1225.992c0.96,-0.437 1.762,-1.176 2.722,-1.613c10.283,-4.683 22.041,0.904 22.457,12.304c0.701,19.199 -25.764,22.246 -29.39,3.976c-1.556,-7.841 0.144,-7.718 4.212,-14.667Z"/><path d="M782.455,1392.659c0.96,-0.437 1.762,-1.176 2.722,-1.613c10.283,-4.683 22.041,0.904 22.457,12.304c0.701,19.199 -25.764,22.246 -29.39,3.976c-1.556,-7.841 0.144,-7.718 4.212,-14.667Z"/><path d="M782.455,1559.325c0.96,-0.437 1.762,-1.176 2.722,-1.613c10.283,-4.683 22.041,0.904 22.457,12.304c0.701,19.199 -25.764,22.246 -29.39,3.976c-1.556,-7.841 0.144,-7.718 4.212,-14.667Z"/><path d="M25.22,1226.066c4.056,6.864 5.719,6.756 4.153,14.576c-3.655,18.245 -30.211,15.321 -29.352,-3.983c0.497,-11.163 11.659,-17.145 22.463,-12.183c0.959,0.44 1.777,1.15 2.736,1.591Z"/><path d="M615.788,1059.325c0.96,-0.437 1.762,-1.176 2.722,-1.613c10.283,-4.683 22.041,0.904 22.457,12.304c0.701,19.193 -25.755,22.253 -29.39,3.976c-1.56,-7.842 0.144,-7.719 4.211,-14.666Z"/><path d="M615.788,1225.992c0.96,-0.437 1.762,-1.176 2.722,-1.613c10.283,-4.683 22.041,0.904 22.457,12.304c0.701,19.193 -25.755,22.253 -29.39,3.976c-1.56,-7.842 0.144,-7.719 4.211,-14.666Z"/><path d="M615.788,1392.659c0.96,-0.437 1.762,-1.176 2.722,-1.613c10.283,-4.683 22.041,0.904 22.457,12.304c0.701,19.193 -25.755,22.253 -29.39,3.976c-1.56,-7.842 0.144,-7.719 4.211,-14.666Z"/><path d="M615.788,1559.325c0.96,-0.437 1.762,-1.176 2.722,-1.613c10.283,-4.683 22.041,0.904 22.457,12.304c0.701,19.193 -25.755,22.253 -29.39,3.976c-1.56,-7.842 0.144,-7.719 4.211,-14.666Z"/><path d="M1025.246,1059.332c4.057,6.967 5.761,6.836 4.23,14.674c-3.55,18.174 -30.101,15.28 -29.399,-3.99c0.416,-11.419 12.164,-16.99 22.454,-12.296c0.958,0.437 1.758,1.175 2.716,1.612Z"/><path d="M1025.246,1225.999c4.057,6.967 5.761,6.836 4.23,14.674c-3.55,18.174 -30.101,15.28 -29.399,-3.99c0.416,-11.419 12.164,-16.99 22.454,-12.296c0.958,0.437 1.758,1.175 2.716,1.612Z"/><path d="M1025.246,1392.665c4.057,6.967 5.761,6.836 4.23,14.674c-3.55,18.174 -30.101,15.28 -29.399,-3.99c0.416,-11.419 12.164,-16.99 22.454,-12.296c0.958,0.437 1.758,1.175 2.716,1.612Z"/><path d="M1025.246,1559.332c4.057,6.967 5.761,6.836 4.23,14.674c-3.55,18.174 -30.101,15.28 -29.399,-3.99c0.416,-11.419 12.164,-16.99 22.454,-12.296c0.958,0.437 1.758,1.175 2.716,1.612Z"/><path d="M1025.246,1725.999c4.057,6.967 5.761,6.836 4.23,14.674c-3.55,18.174 -30.101,15.28 -29.399,-3.99c0.416,-11.419 12.164,-16.99 22.454,-12.296c0.958,0.437 1.758,1.175 2.716,1.612Z"/><path d="M1025.246,1892.665c4.057,6.967 5.761,6.836 4.23,14.674c-3.55,18.174 -30.101,15.28 -29.399,-3.99c0.416,-11.419 12.164,-16.99 22.454,-12.296c0.958,0.437 1.758,1.175 2.716,1.612Z"/><path d="M858.58,1059.332c4.017,6.911 5.716,6.788 4.188,14.667c-3.544,18.279 -30.177,15.185 -29.375,-4c0.478,-11.434 12.204,-16.964 22.472,-12.28c0.958,0.437 1.758,1.175 2.716,1.612Z"/><path d="M858.58,1225.999c4.017,6.911 5.716,6.788 4.188,14.667c-3.544,18.279 -30.177,15.185 -29.375,-4c0.478,-11.434 12.204,-16.964 22.472,-12.28c0.958,0.437 1.758,1.175 2.716,1.612Z"/><path d="M858.58,1392.665c4.017,6.911 5.716,6.788 4.188,14.667c-3.544,18.279 -30.177,15.185 -29.375,-4c0.478,-11.434 12.204,-16.964 22.472,-12.28c0.958,0.437 1.758,1.175 2.716,1.612Z"/><path d="M858.58,1559.332c4.017,6.911 5.716,6.788 4.188,14.667c-3.544,18.279 -30.177,15.185 -29.375,-4c0.478,-11.434 12.204,-16.964 22.472,-12.28c0.958,0.437 1.758,1.175 2.716,1.612Z"/><path d="M195.574,465.261c-0.224,0.29 -1.123,3.511 -5.072,6.585c-11.385,8.862 -28.544,-3.036 -22.767,-18.728c4.477,-12.162 29.978,-12.61 28.39,8.471c-0.093,1.234 -0.458,2.437 -0.551,3.672Z" style="fill-opacity:1;"/><path d="M195.574,631.928c-0.224,0.29 -1.123,3.511 -5.072,6.585c-11.385,8.862 -28.544,-3.036 -22.767,-18.728c4.477,-12.162 29.978,-12.61 28.39,8.471c-0.093,1.234 -0.458,2.437 -0.551,3.672Z" style="fill-opacity:1;"/><path d="M195.574,1131.928c-0.224,0.29 -1.123,3.511 -5.072,6.585c-11.385,8.862 -28.544,-3.036 -22.767,-18.728c4.477,-12.162 29.978,-12.61 28.39,8.471c-0.093,1.234 -0.458,2.437 -0.551,3.672Z" style="fill-opacity:1;"/><path d="M195.574,1298.595c-0.224,0.29 -1.123,3.511 -5.072,6.585c-11.385,8.862 -28.544,-3.036 -22.767,-18.728c4.477,-12.162 29.978,-12.61 28.39,8.471c-0.093,1.234 -0.458,2.437 -0.551,3.672Z" style="fill-opacity:1;"/><path d="M691.913,1059.332c4.009,6.897 5.749,6.772 4.17,14.654c-3.675,18.335 -30.157,15.147 -29.357,-3.987c0.478,-11.434 12.204,-16.964 22.472,-12.28c0.958,0.437 1.758,1.175 2.716,1.612Z"/><path d="M691.913,1225.999c4.009,6.897 5.749,6.772 4.17,14.654c-3.675,18.335 -30.157,15.147 -29.357,-3.987c0.478,-11.434 12.204,-16.964 22.472,-12.28c0.958,0.437 1.758,1.175 2.716,1.612Z"/><path d="M691.913,1392.665c4.009,6.897 5.749,6.772 4.17,14.654c-3.675,18.335 -30.157,15.147 -29.357,-3.987c0.478,-11.434 12.204,-16.964 22.472,-12.28c0.958,0.437 1.758,1.175 2.716,1.612Z"/><path d="M691.913,1559.332c4.009,6.897 5.749,6.772 4.17,14.654c-3.675,18.335 -30.157,15.147 -29.357,-3.987c0.478,-11.434 12.204,-16.964 22.472,-12.28c0.958,0.437 1.758,1.175 2.716,1.612Z"/><path d="M1191.913,1059.332c4.017,6.911 5.715,6.789 4.188,14.667c-3.539,18.265 -30.056,15.211 -29.357,-3.983c0.415,-11.398 12.158,-16.993 22.454,-12.296c0.958,0.437 1.758,1.175 2.716,1.612Z"/><path d="M1191.913,1225.999c4.017,6.911 5.715,6.789 4.188,14.667c-3.539,18.265 -30.056,15.211 -29.357,-3.983c0.415,-11.398 12.158,-16.993 22.454,-12.296c0.958,0.437 1.758,1.175 2.716,1.612Z"/><path d="M191.896,1059.387c4.067,6.894 5.761,6.777 4.187,14.599c-3.644,18.104 -30.239,15.428 -29.36,-3.992c0.506,-11.19 11.787,-17.072 22.436,-12.2c0.96,0.439 1.777,1.154 2.737,1.594Z"/><path d="M191.896,1226.054c4.067,6.894 5.761,6.777 4.187,14.599c-3.644,18.104 -30.239,15.428 -29.36,-3.992c0.506,-11.19 11.787,-17.072 22.436,-12.2c0.96,0.439 1.777,1.154 2.737,1.594Z"/><path d="M115.748,1225.979c0.97,-0.438 1.781,-1.182 2.751,-1.62c10.692,-4.827 21.775,1.363 22.345,12.296c0.986,18.915 -25.528,22.501 -29.381,4.012c-1.639,-7.866 0.11,-7.755 4.286,-14.688Z"/><path d="M358.563,1059.384c4.067,6.897 5.754,6.781 4.187,14.602c-3.655,18.233 -30.165,15.281 -29.357,-3.987c0.467,-11.144 11.808,-17.091 22.437,-12.213c0.959,0.44 1.774,1.158 2.733,1.598Z"/><path d="M358.563,1226.051c4.067,6.897 5.754,6.781 4.187,14.602c-3.655,18.233 -30.165,15.281 -29.357,-3.987c0.467,-11.144 11.808,-17.091 22.437,-12.213c0.959,0.44 1.774,1.158 2.733,1.598Z"/><path d="M358.563,1392.718c4.067,6.897 5.754,6.781 4.187,14.602c-3.655,18.233 -30.165,15.281 -29.357,-3.987c0.467,-11.144 11.808,-17.091 22.437,-12.213c0.959,0.44 1.774,1.158 2.733,1.598Z"/><path d="M525.231,1059.376c4.061,6.902 5.761,6.784 4.186,14.61c-3.655,18.161 -30.167,15.32 -29.358,-3.987c0.47,-11.195 11.877,-17.07 22.443,-12.224c0.959,0.44 1.771,1.161 2.729,1.601Z"/><path d="M525.231,1226.042c4.061,6.902 5.761,6.784 4.186,14.61c-3.655,18.161 -30.167,15.32 -29.358,-3.987c0.47,-11.195 11.877,-17.07 22.443,-12.224c0.959,0.44 1.771,1.161 2.729,1.601Z"/><path d="M525.231,1392.709c4.061,6.902 5.761,6.784 4.186,14.61c-3.655,18.161 -30.167,15.32 -29.358,-3.987c0.47,-11.195 11.877,-17.07 22.443,-12.224c0.959,0.44 1.771,1.161 2.729,1.601Z"/><path d="M1115.803,1059.372c0.962,-0.438 1.779,-1.156 2.74,-1.594c10.648,-4.851 21.976,1.101 22.442,12.221c0.801,19.12 -25.674,22.328 -29.355,3.986c-1.58,-7.873 0.143,-7.754 4.173,-14.613Z"/><path d="M1115.803,1226.039c0.962,-0.438 1.779,-1.156 2.74,-1.594c10.648,-4.851 21.976,1.101 22.442,12.221c0.801,19.12 -25.674,22.328 -29.355,3.986c-1.58,-7.873 0.143,-7.754 4.173,-14.613Z"/><path d="M916.247,746.296c-0.6,0.514 -1.878,4.705 -10.405,5.721c-23.077,2.749 -21.969,-32.044 0.293,-29.235c9.838,1.242 15.631,11.317 11.217,21.804c-0.263,0.625 -0.842,1.085 -1.105,1.71Z"/><path d="M916.247,912.962c-0.6,0.514 -1.878,4.705 -10.405,5.721c-23.077,2.749 -21.969,-32.044 0.293,-29.235c9.838,1.242 15.631,11.317 11.217,21.804c-0.263,0.625 -0.842,1.085 -1.105,1.71Z"/><path d="M1082.914,746.296c-0.601,0.514 -1.878,4.705 -10.405,5.721c-23.026,2.743 -21.869,-31.938 0.288,-29.242c10.04,1.222 15.57,11.481 11.222,21.811c-0.263,0.625 -0.842,1.085 -1.105,1.71Z"/><path d="M1082.914,912.962c-0.601,0.514 -1.878,4.705 -10.405,5.721c-23.026,2.743 -21.869,-31.938 0.288,-29.242c10.04,1.222 15.57,11.481 11.222,21.811c-0.263,0.625 -0.842,1.085 -1.105,1.71Z"/><path d="M224.748,579.669c-0.268,-0.631 -0.853,-1.092 -1.121,-1.723c-4.299,-10.119 1.148,-20.602 11.288,-21.837c21.957,-2.674 23.318,31.897 0.285,29.243c-8.591,-0.99 -9.848,-5.172 -10.451,-5.683Z"/><path d="M224.748,746.335c-0.268,-0.631 -0.853,-1.092 -1.121,-1.723c-4.299,-10.119 1.148,-20.602 11.288,-21.837c21.957,-2.674 23.318,31.897 0.285,29.243c-8.591,-0.99 -9.848,-5.172 -10.451,-5.683Z"/><path d="M224.748,913.002c-0.268,-0.631 -0.853,-1.092 -1.121,-1.723c-4.299,-10.119 1.148,-20.602 11.288,-21.837c21.957,-2.674 23.318,31.897 0.285,29.243c-8.591,-0.99 -9.848,-5.172 -10.451,-5.683Z"/><path d="M391.431,246.299c-0.258,-0.621 -0.827,-1.08 -1.085,-1.701c-4.345,-10.471 1.29,-20.612 11.235,-21.823c21.965,-2.675 23.382,31.922 0.286,29.245c-8.636,-1.001 -9.806,-5.182 -10.436,-5.72Z"/><path d="M391.431,412.966c-0.258,-0.621 -0.827,-1.08 -1.085,-1.701c-4.345,-10.471 1.29,-20.612 11.235,-21.823c21.965,-2.675 23.382,31.922 0.286,29.245c-8.636,-1.001 -9.806,-5.182 -10.436,-5.72Z"/><path d="M391.431,579.633c-0.258,-0.621 -0.827,-1.08 -1.085,-1.701c-4.345,-10.471 1.29,-20.612 11.235,-21.823c21.965,-2.675 23.382,31.922 0.286,29.245c-8.636,-1.001 -9.806,-5.182 -10.436,-5.72Z"/><path d="M391.431,746.299c-0.258,-0.621 -0.827,-1.08 -1.085,-1.701c-4.345,-10.471 1.29,-20.612 11.235,-21.823c21.965,-2.675 23.382,31.922 0.286,29.245c-8.636,-1.001 -9.806,-5.182 -10.436,-5.72Z"/><path d="M391.431,912.966c-0.258,-0.621 -0.827,-1.08 -1.085,-1.701c-4.345,-10.471 1.29,-20.612 11.235,-21.823c21.965,-2.675 23.382,31.922 0.286,29.245c-8.636,-1.001 -9.806,-5.182 -10.436,-5.72Z"/><path d="M282.423,559.313c0.967,-0.437 1.775,-1.183 2.742,-1.62c13.948,-6.307 27.288,6.014 20.833,20.747c-3.841,8.767 -24.439,11.882 -27.847,-4.447c-1.65,-7.908 0.166,-7.782 4.272,-14.68Z"/><path d="M282.423,725.98c0.967,-0.437 1.775,-1.183 2.742,-1.62c13.948,-6.307 27.288,6.014 20.833,20.747c-3.841,8.767 -24.439,11.882 -27.847,-4.447c-1.65,-7.908 0.166,-7.782 4.272,-14.68Z"/><path d="M282.423,892.647c0.967,-0.437 1.775,-1.183 2.742,-1.62c13.948,-6.307 27.288,6.014 20.833,20.747c-3.841,8.767 -24.439,11.882 -27.847,-4.447c-1.65,-7.908 0.166,-7.782 4.272,-14.68Z"/><path d="M1249.58,746.296c-0.601,0.514 -1.878,4.705 -10.405,5.721c-23.038,2.745 -21.706,-31.971 0.291,-29.237c9.867,1.227 15.624,11.341 11.219,21.806c-0.263,0.625 -0.842,1.085 -1.105,1.71Z"/><path d="M1249.58,912.962c-0.601,0.514 -1.878,4.705 -10.405,5.721c-23.038,2.745 -21.706,-31.971 0.291,-29.237c9.867,1.227 15.624,11.341 11.219,21.806c-0.263,0.625 -0.842,1.085 -1.105,1.71Z"/><path d="M558.098,246.299c-0.258,-0.621 -0.827,-1.08 -1.085,-1.701c-4.345,-10.471 1.29,-20.612 11.235,-21.823c21.961,-2.675 23.316,31.914 0.286,29.245c-8.636,-1.001 -9.806,-5.182 -10.436,-5.72Z"/><path d="M558.098,412.966c-0.258,-0.621 -0.827,-1.08 -1.085,-1.701c-4.345,-10.471 1.29,-20.612 11.235,-21.823c21.961,-2.675 23.316,31.914 0.286,29.245c-8.636,-1.001 -9.806,-5.182 -10.436,-5.72Z"/><path d="M558.098,579.633c-0.258,-0.621 -0.827,-1.08 -1.085,-1.701c-4.345,-10.471 1.29,-20.612 11.235,-21.823c21.961,-2.675 23.316,31.914 0.286,29.245c-8.636,-1.001 -9.806,-5.182 -10.436,-5.72Z"/><path d="M558.098,746.299c-0.258,-0.621 -0.827,-1.08 -1.085,-1.701c-4.345,-10.471 1.29,-20.612 11.235,-21.823c21.961,-2.675 23.316,31.914 0.286,29.245c-8.636,-1.001 -9.806,-5.182 -10.436,-5.72Z"/><path d="M558.098,912.966c-0.258,-0.621 -0.827,-1.08 -1.085,-1.701c-4.345,-10.471 1.29,-20.612 11.235,-21.823c21.961,-2.675 23.316,31.914 0.286,29.245c-8.636,-1.001 -9.806,-5.182 -10.436,-5.72Z"/><path d="M724.787,579.63c-0.261,-0.624 -0.837,-1.083 -1.098,-1.707c-4.478,-10.686 1.647,-20.597 11.22,-21.808c21.914,-2.771 23.405,31.964 0.294,29.236c-8.564,-1.011 -9.805,-5.199 -10.416,-5.721Z"/><path d="M724.787,746.297c-0.261,-0.624 -0.837,-1.083 -1.098,-1.707c-4.478,-10.686 1.647,-20.597 11.22,-21.808c21.914,-2.771 23.405,31.964 0.294,29.236c-8.564,-1.011 -9.805,-5.199 -10.416,-5.721Z"/><path d="M724.787,912.964c-0.261,-0.624 -0.837,-1.083 -1.098,-1.707c-4.478,-10.686 1.647,-20.597 11.22,-21.808c21.914,-2.771 23.405,31.964 0.294,29.236c-8.564,-1.011 -9.805,-5.199 -10.416,-5.721Z"/><path d="M449.113,225.992c0.962,-0.438 1.768,-1.176 2.73,-1.614c13.967,-6.352 27.266,6.02 20.822,20.728c-3.815,8.707 -24.409,11.967 -27.802,-4.454c-1.62,-7.84 0.111,-7.73 4.25,-14.66Z"/><path d="M449.113,392.659c0.962,-0.438 1.768,-1.176 2.73,-1.614c13.967,-6.352 27.266,6.02 20.822,20.728c-3.815,8.707 -24.409,11.967 -27.802,-4.454c-1.62,-7.84 0.111,-7.73 4.25,-14.66Z"/><path d="M449.113,559.325c0.962,-0.438 1.768,-1.176 2.73,-1.614c13.967,-6.352 27.266,6.02 20.822,20.728c-3.815,8.707 -24.409,11.967 -27.802,-4.454c-1.62,-7.84 0.111,-7.73 4.25,-14.66Z"/><path d="M449.113,725.992c0.962,-0.438 1.768,-1.176 2.73,-1.614c13.967,-6.352 27.266,6.02 20.822,20.728c-3.815,8.707 -24.409,11.967 -27.802,-4.454c-1.62,-7.84 0.111,-7.73 4.25,-14.66Z"/><path d="M449.113,892.659c0.962,-0.438 1.768,-1.176 2.73,-1.614c13.967,-6.352 27.266,6.02 20.822,20.728c-3.815,8.707 -24.409,11.967 -27.802,-4.454c-1.62,-7.84 0.111,-7.73 4.25,-14.66Z"/><path d="M1282.47,726.039c0.962,-0.438 1.779,-1.156 2.74,-1.594c14.579,-6.641 27.066,6.435 20.856,20.695c-3.814,8.758 -24.492,11.846 -27.77,-4.488c-1.58,-7.874 0.143,-7.754 4.173,-14.613Z"/><path d="M949.122,725.991c0.96,-0.437 1.761,-1.176 2.721,-1.613c14.138,-6.438 27.243,6.312 20.875,20.755c-3.825,8.675 -24.607,11.907 -27.775,-4.467c-1.518,-7.848 0.152,-7.733 4.179,-14.675Z"/><path d="M949.122,892.658c0.96,-0.437 1.761,-1.176 2.721,-1.613c14.138,-6.438 27.243,6.312 20.875,20.755c-3.825,8.675 -24.607,11.907 -27.775,-4.467c-1.518,-7.848 0.152,-7.733 4.179,-14.675Z"/><path d="M782.455,59.325c0.96,-0.437 1.762,-1.176 2.722,-1.613c13.966,-6.36 27.251,6.029 20.837,20.735c-3.814,8.743 -24.523,11.903 -27.77,-4.454c-1.556,-7.841 0.144,-7.718 4.212,-14.667Z"/><path d="M782.455,725.992c0.96,-0.437 1.762,-1.176 2.722,-1.613c13.966,-6.36 27.251,6.029 20.837,20.735c-3.814,8.743 -24.523,11.903 -27.77,-4.454c-1.556,-7.841 0.144,-7.718 4.212,-14.667Z"/><path d="M782.455,892.659c0.96,-0.437 1.762,-1.176 2.722,-1.613c13.966,-6.36 27.251,6.029 20.837,20.735c-3.814,8.743 -24.523,11.903 -27.77,-4.454c-1.556,-7.841 0.144,-7.718 4.212,-14.667Z"/><path d="M615.788,225.992c0.96,-0.437 1.762,-1.176 2.722,-1.613c13.966,-6.36 27.251,6.029 20.837,20.735c-3.812,8.741 -24.515,11.908 -27.77,-4.455c-1.56,-7.842 0.144,-7.719 4.211,-14.666Z"/><path d="M615.788,392.659c0.96,-0.437 1.762,-1.176 2.722,-1.613c13.966,-6.36 27.251,6.029 20.837,20.735c-3.812,8.741 -24.515,11.908 -27.77,-4.455c-1.56,-7.842 0.144,-7.719 4.211,-14.666Z"/><path d="M615.788,559.325c0.96,-0.437 1.762,-1.176 2.722,-1.613c13.966,-6.36 27.251,6.029 20.837,20.735c-3.812,8.741 -24.515,11.908 -27.77,-4.455c-1.56,-7.842 0.144,-7.719 4.211,-14.666Z"/><path d="M615.788,725.992c0.96,-0.437 1.762,-1.176 2.722,-1.613c13.966,-6.36 27.251,6.029 20.837,20.735c-3.812,8.741 -24.515,11.908 -27.77,-4.455c-1.56,-7.842 0.144,-7.719 4.211,-14.666Z"/><path d="M615.788,892.659c0.96,-0.437 1.762,-1.176 2.722,-1.613c13.966,-6.36 27.251,6.029 20.837,20.735c-3.812,8.741 -24.515,11.908 -27.77,-4.455c-1.56,-7.842 0.144,-7.719 4.211,-14.666Z"/><path d="M1025.246,725.999c4.057,6.966 5.762,6.836 4.23,14.674c-3.171,16.233 -23.928,13.267 -27.778,4.44c-6.41,-14.696 6.839,-27.11 20.832,-20.727c0.958,0.437 1.758,1.175 2.716,1.612Z"/><path d="M1025.246,892.665c4.057,6.966 5.762,6.836 4.23,14.674c-3.171,16.233 -23.928,13.267 -27.778,4.44c-6.41,-14.696 6.839,-27.11 20.832,-20.727c0.958,0.437 1.758,1.175 2.716,1.612Z"/><path d="M858.58,59.332c4.017,6.911 5.716,6.788 4.188,14.667c-3.171,16.352 -23.943,13.154 -27.774,4.467c-6.364,-14.432 6.705,-27.208 20.87,-20.746c0.958,0.437 1.758,1.175 2.716,1.612Z"/><path d="M858.58,725.999c4.017,6.911 5.716,6.788 4.188,14.667c-3.171,16.352 -23.943,13.154 -27.774,4.467c-6.364,-14.432 6.705,-27.208 20.87,-20.746c0.958,0.437 1.758,1.175 2.716,1.612Z"/><path d="M858.58,892.665c4.017,6.911 5.716,6.788 4.188,14.667c-3.171,16.352 -23.943,13.154 -27.774,4.467c-6.364,-14.432 6.705,-27.208 20.87,-20.746c0.958,0.437 1.758,1.175 2.716,1.612Z"/><path d="M191.896,559.387c4.066,6.894 5.762,6.776 4.187,14.599c-3.282,16.306 -24.079,13.209 -27.829,4.515c-6.091,-14.124 6.323,-27.378 20.905,-20.707c0.96,0.439 1.777,1.154 2.737,1.594Z"/><path d="M191.896,726.054c4.066,6.894 5.762,6.776 4.187,14.599c-3.282,16.306 -24.079,13.209 -27.829,4.515c-6.091,-14.124 6.323,-27.378 20.905,-20.707c0.96,0.439 1.777,1.154 2.737,1.594Z"/><path d="M1191.913,725.999c4.017,6.911 5.715,6.788 4.188,14.667c-3.165,16.334 -23.903,13.198 -27.732,4.446c-6.42,-14.674 6.836,-27.108 20.828,-20.725c0.958,0.437 1.758,1.175 2.716,1.612Z"/><path d="M1191.913,892.665c4.017,6.911 5.715,6.788 4.188,14.667c-3.165,16.334 -23.903,13.198 -27.732,4.446c-6.42,-14.674 6.836,-27.108 20.828,-20.725c0.958,0.437 1.758,1.175 2.716,1.612Z"/><path d="M691.913,225.999c4.009,6.897 5.75,6.772 4.17,14.654c-3.279,16.361 -23.928,13.161 -27.755,4.48c-6.364,-14.432 6.705,-27.208 20.87,-20.746c0.958,0.437 1.758,1.175 2.716,1.612Z"/><path d="M691.913,392.665c4.009,6.897 5.75,6.772 4.17,14.654c-3.279,16.361 -23.928,13.161 -27.755,4.48c-6.364,-14.432 6.705,-27.208 20.87,-20.746c0.958,0.437 1.758,1.175 2.716,1.612Z"/><path d="M691.913,559.332c4.009,6.897 5.75,6.772 4.17,14.654c-3.279,16.361 -23.928,13.161 -27.755,4.48c-6.364,-14.432 6.705,-27.208 20.87,-20.746c0.958,0.437 1.758,1.175 2.716,1.612Z"/><path d="M691.913,725.999c4.009,6.897 5.75,6.772 4.17,14.654c-3.279,16.361 -23.928,13.161 -27.755,4.48c-6.364,-14.432 6.705,-27.208 20.87,-20.746c0.958,0.437 1.758,1.175 2.716,1.612Z"/><path d="M691.913,892.665c4.009,6.897 5.75,6.772 4.17,14.654c-3.279,16.361 -23.928,13.161 -27.755,4.48c-6.364,-14.432 6.705,-27.208 20.87,-20.746c0.958,0.437 1.758,1.175 2.716,1.612Z"/><path d="M358.563,392.718c4.067,6.897 5.755,6.781 4.187,14.602c-3.269,16.305 -23.949,13.262 -27.771,4.487c-6.249,-14.35 6.51,-27.268 20.851,-20.687c0.959,0.44 1.774,1.158 2.733,1.598Z"/><path d="M358.563,559.384c4.067,6.897 5.755,6.781 4.187,14.602c-3.269,16.305 -23.949,13.262 -27.771,4.487c-6.249,-14.35 6.51,-27.268 20.851,-20.687c0.959,0.44 1.774,1.158 2.733,1.598Z"/><path d="M358.563,726.051c4.067,6.897 5.755,6.781 4.187,14.602c-3.269,16.305 -23.949,13.262 -27.771,4.487c-6.249,-14.35 6.51,-27.268 20.851,-20.687c0.959,0.44 1.774,1.158 2.733,1.598Z"/><path d="M358.563,892.718c4.067,6.897 5.755,6.781 4.187,14.602c-3.269,16.305 -23.949,13.262 -27.771,4.487c-6.249,-14.35 6.51,-27.268 20.851,-20.687c0.959,0.44 1.774,1.158 2.733,1.598Z"/><path d="M525.231,226.042c4.06,6.902 5.761,6.783 4.186,14.61c-3.264,16.213 -23.928,13.314 -27.772,4.487c-6.264,-14.384 6.558,-27.256 20.856,-20.698c0.959,0.44 1.771,1.161 2.729,1.601Z"/><path d="M525.231,392.709c4.06,6.902 5.761,6.783 4.186,14.61c-3.264,16.213 -23.928,13.314 -27.772,4.487c-6.264,-14.384 6.558,-27.256 20.856,-20.698c0.959,0.44 1.771,1.161 2.729,1.601Z"/><path d="M525.231,559.376c4.06,6.902 5.761,6.783 4.186,14.61c-3.264,16.213 -23.928,13.314 -27.772,4.487c-6.264,-14.384 6.558,-27.256 20.856,-20.698c0.959,0.44 1.771,1.161 2.729,1.601Z"/><path d="M525.231,726.042c4.06,6.902 5.761,6.783 4.186,14.61c-3.264,16.213 -23.928,13.314 -27.772,4.487c-6.264,-14.384 6.558,-27.256 20.856,-20.698c0.959,0.44 1.771,1.161 2.729,1.601Z"/><path d="M525.231,892.709c4.06,6.902 5.761,6.783 4.186,14.61c-3.264,16.213 -23.928,13.314 -27.772,4.487c-6.264,-14.384 6.558,-27.256 20.856,-20.698c0.959,0.44 1.771,1.161 2.729,1.601Z"/><path d="M1115.803,726.039c0.962,-0.438 1.779,-1.156 2.74,-1.594c14.417,-6.567 27.116,6.456 20.841,20.688c-3.82,8.663 -24.465,11.909 -27.754,-4.481c-1.58,-7.874 0.143,-7.754 4.173,-14.613Z"/><path d="M1115.803,892.705c0.962,-0.438 1.779,-1.156 2.74,-1.594c14.417,-6.567 27.116,6.456 20.841,20.688c-3.82,8.663 -24.465,11.909 -27.754,-4.481c-1.58,-7.874 0.143,-7.754 4.173,-14.613Z"/><path d="M891.039,689.835c-0.347,-1.117 -1.013,-2.118 -1.36,-3.235c-3.939,-12.683 7.493,-20.206 16.081,-18.945c20.36,2.99 15.184,31.396 -4.188,28.883c-6.724,-0.872 -10.221,-6.351 -10.533,-6.703Z"/><path d="M891.039,856.502c-0.347,-1.117 -1.013,-2.118 -1.36,-3.235c-3.939,-12.683 7.493,-20.206 16.081,-18.945c20.36,2.99 15.184,31.396 -4.188,28.883c-6.724,-0.872 -10.221,-6.351 -10.533,-6.703Z"/><path d="M891.039,1023.168c-0.347,-1.117 -1.013,-2.118 -1.36,-3.235c-3.939,-12.683 7.493,-20.206 16.081,-18.945c20.36,2.99 15.184,31.396 -4.188,28.883c-6.724,-0.872 -10.221,-6.351 -10.533,-6.703Z"/><path d="M891.039,1189.835c-0.347,-1.117 -1.013,-2.118 -1.36,-3.235c-3.939,-12.683 7.493,-20.206 16.081,-18.945c20.36,2.99 15.184,31.396 -4.188,28.883c-6.724,-0.872 -10.221,-6.351 -10.533,-6.703Z"/><path d="M891.039,1356.502c-0.347,-1.117 -1.013,-2.118 -1.36,-3.235c-3.939,-12.683 7.493,-20.206 16.081,-18.945c20.36,2.99 15.184,31.396 -4.188,28.883c-6.724,-0.872 -10.221,-6.351 -10.533,-6.703Z"/><path d="M891.039,1523.168c-0.347,-1.117 -1.013,-2.118 -1.36,-3.235c-3.939,-12.683 7.493,-20.206 16.081,-18.945c20.36,2.99 15.184,31.396 -4.188,28.883c-6.724,-0.872 -10.221,-6.351 -10.533,-6.703Z"/><path d="M891.039,1689.835c-0.347,-1.117 -1.013,-2.118 -1.36,-3.235c-3.939,-12.683 7.493,-20.206 16.081,-18.945c20.36,2.99 15.184,31.396 -4.188,28.883c-6.724,-0.872 -10.221,-6.351 -10.533,-6.703Z"/><path d="M83.281,1189.83c-0.15,0.17 -3.687,5.786 -10.467,6.696c-19.529,2.62 -24.775,-25.967 -4.202,-28.875c8.537,-1.207 19.631,6.086 15.951,18.912c-0.323,1.124 -0.959,2.143 -1.281,3.267Z"/><path d="M249.959,689.828c-0.184,0.208 -3.719,5.793 -10.482,6.694c-19.589,2.608 -24.531,-25.967 -4.197,-28.871c8.653,-1.236 19.713,6.316 15.99,18.921c-0.331,1.122 -0.979,2.134 -1.311,3.256Z"/><path d="M249.959,856.495c-0.184,0.208 -3.719,5.793 -10.482,6.694c-19.589,2.608 -24.531,-25.967 -4.197,-28.871c8.653,-1.236 19.713,6.316 15.99,18.921c-0.331,1.122 -0.979,2.134 -1.311,3.256Z"/><path d="M249.959,1023.162c-0.184,0.208 -3.719,5.793 -10.482,6.694c-19.589,2.608 -24.531,-25.967 -4.197,-28.871c8.653,-1.236 19.713,6.316 15.99,18.921c-0.331,1.122 -0.979,2.134 -1.311,3.256Z"/><path d="M249.959,1189.828c-0.184,0.208 -3.719,5.793 -10.482,6.694c-19.589,2.608 -24.531,-25.967 -4.197,-28.871c8.653,-1.236 19.713,6.316 15.99,18.921c-0.331,1.122 -0.979,2.134 -1.311,3.256Z"/><path d="M249.959,1356.495c-0.184,0.208 -3.719,5.793 -10.482,6.694c-19.589,2.608 -24.531,-25.967 -4.197,-28.871c8.653,-1.236 19.713,6.316 15.99,18.921c-0.331,1.122 -0.979,2.134 -1.311,3.256Z"/><path d="M583.293,689.831c-0.313,0.357 -3.734,5.827 -10.486,6.706c-19.552,2.546 -24.508,-25.985 -4.193,-28.886c8.643,-1.234 19.714,6.304 15.989,18.921c-0.331,1.123 -0.978,2.136 -1.31,3.259Z"/><path d="M583.293,856.498c-0.313,0.357 -3.734,5.827 -10.486,6.706c-19.552,2.546 -24.508,-25.985 -4.193,-28.886c8.643,-1.234 19.714,6.304 15.989,18.921c-0.331,1.123 -0.978,2.136 -1.31,3.259Z"/><path d="M583.293,1023.165c-0.313,0.357 -3.734,5.827 -10.486,6.706c-19.552,2.546 -24.508,-25.985 -4.193,-28.886c8.643,-1.234 19.714,6.304 15.989,18.921c-0.331,1.123 -0.978,2.136 -1.31,3.259Z"/><path d="M583.293,1189.831c-0.313,0.357 -3.734,5.827 -10.486,6.706c-19.552,2.546 -24.508,-25.985 -4.193,-28.886c8.643,-1.234 19.714,6.304 15.989,18.921c-0.331,1.123 -0.978,2.136 -1.31,3.259Z"/><path d="M583.293,1356.498c-0.313,0.357 -3.734,5.827 -10.486,6.706c-19.552,2.546 -24.508,-25.985 -4.193,-28.886c8.643,-1.234 19.714,6.304 15.989,18.921c-0.331,1.123 -0.978,2.136 -1.31,3.259Z"/><path d="M583.293,1523.165c-0.313,0.357 -3.734,5.827 -10.486,6.706c-19.552,2.546 -24.508,-25.985 -4.193,-28.886c8.643,-1.234 19.714,6.304 15.989,18.921c-0.331,1.123 -0.978,2.136 -1.31,3.259Z"/><path d="M1057.717,856.504c-0.33,-1.122 -0.993,-2.127 -1.324,-3.248c-3.636,-12.343 7.156,-20.206 16.038,-18.938c20.386,2.91 15.233,31.406 -4.193,28.886c-6.742,-0.874 -10.232,-6.373 -10.522,-6.7Z"/><path d="M1057.717,1023.171c-0.33,-1.122 -0.993,-2.127 -1.324,-3.248c-3.636,-12.343 7.156,-20.206 16.038,-18.938c20.386,2.91 15.233,31.406 -4.193,28.886c-6.742,-0.874 -10.232,-6.373 -10.522,-6.7Z"/><path d="M1057.717,1189.838c-0.33,-1.122 -0.993,-2.127 -1.324,-3.248c-3.636,-12.343 7.156,-20.206 16.038,-18.938c20.386,2.91 15.233,31.406 -4.193,28.886c-6.742,-0.874 -10.232,-6.373 -10.522,-6.7Z"/><path d="M1057.717,1356.504c-0.33,-1.122 -0.993,-2.127 -1.324,-3.248c-3.636,-12.343 7.156,-20.206 16.038,-18.938c20.386,2.91 15.233,31.406 -4.193,28.886c-6.742,-0.874 -10.232,-6.373 -10.522,-6.7Z"/><path d="M1057.717,1523.171c-0.33,-1.122 -0.993,-2.127 -1.324,-3.248c-3.636,-12.343 7.156,-20.206 16.038,-18.938c20.386,2.91 15.233,31.406 -4.193,28.886c-6.742,-0.874 -10.232,-6.373 -10.522,-6.7Z"/><path d="M1057.717,1689.838c-0.33,-1.122 -0.993,-2.127 -1.324,-3.248c-3.636,-12.343 7.156,-20.206 16.038,-18.938c20.386,2.91 15.233,31.406 -4.193,28.886c-6.742,-0.874 -10.232,-6.373 -10.522,-6.7Z"/><path d="M416.626,689.831c-0.302,0.344 -3.735,5.829 -10.487,6.706c-19.516,2.534 -24.527,-25.982 -4.193,-28.886c8.643,-1.234 19.714,6.304 15.989,18.921c-0.331,1.123 -0.978,2.136 -1.31,3.259Z"/><path d="M416.626,856.498c-0.302,0.344 -3.735,5.829 -10.487,6.706c-19.516,2.534 -24.527,-25.982 -4.193,-28.886c8.643,-1.234 19.714,6.304 15.989,18.921c-0.331,1.123 -0.978,2.136 -1.31,3.259Z"/><path d="M416.626,1023.165c-0.302,0.344 -3.735,5.829 -10.487,6.706c-19.516,2.534 -24.527,-25.982 -4.193,-28.886c8.643,-1.234 19.714,6.304 15.989,18.921c-0.331,1.123 -0.978,2.136 -1.31,3.259Z"/><path d="M416.626,1189.831c-0.302,0.344 -3.735,5.829 -10.487,6.706c-19.516,2.534 -24.527,-25.982 -4.193,-28.886c8.643,-1.234 19.714,6.304 15.989,18.921c-0.331,1.123 -0.978,2.136 -1.31,3.259Z"/><path d="M416.626,1356.498c-0.302,0.344 -3.735,5.829 -10.487,6.706c-19.516,2.534 -24.527,-25.982 -4.193,-28.886c8.643,-1.234 19.714,6.304 15.989,18.921c-0.331,1.123 -0.978,2.136 -1.31,3.259Z"/><path d="M1224.384,856.504c-0.33,-1.122 -0.993,-2.127 -1.324,-3.248c-3.65,-12.39 7.233,-20.216 16.035,-18.935c20.366,2.962 15.237,31.403 -4.19,28.884c-6.742,-0.874 -10.232,-6.373 -10.522,-6.7Z"/><path d="M1224.384,1023.171c-0.33,-1.122 -0.993,-2.127 -1.324,-3.248c-3.65,-12.39 7.233,-20.216 16.035,-18.935c20.366,2.962 15.237,31.403 -4.19,28.884c-6.742,-0.874 -10.232,-6.373 -10.522,-6.7Z"/><path d="M1224.384,1189.838c-0.33,-1.122 -0.993,-2.127 -1.324,-3.248c-3.65,-12.39 7.233,-20.216 16.035,-18.935c20.366,2.962 15.237,31.403 -4.19,28.884c-6.742,-0.874 -10.232,-6.373 -10.522,-6.7Z"/><path d="M749.96,689.831c-0.283,0.323 -3.736,5.834 -10.487,6.706c-19.458,2.514 -24.515,-25.879 -4.187,-28.881c8.503,-1.256 19.733,6.217 15.984,18.916c-0.331,1.123 -0.978,2.136 -1.31,3.259Z"/><path d="M749.96,856.498c-0.283,0.323 -3.736,5.834 -10.487,6.706c-19.458,2.514 -24.515,-25.879 -4.187,-28.881c8.503,-1.256 19.733,6.217 15.984,18.916c-0.331,1.123 -0.978,2.136 -1.31,3.259Z"/><path d="M749.96,1023.165c-0.283,0.323 -3.736,5.834 -10.487,6.706c-19.458,2.514 -24.515,-25.879 -4.187,-28.881c8.503,-1.256 19.733,6.217 15.984,18.916c-0.331,1.123 -0.978,2.136 -1.31,3.259Z"/><path d="M749.96,1189.831c-0.283,0.323 -3.736,5.834 -10.487,6.706c-19.458,2.514 -24.515,-25.879 -4.187,-28.881c8.503,-1.256 19.733,6.217 15.984,18.916c-0.331,1.123 -0.978,2.136 -1.31,3.259Z"/><path d="M749.96,1356.498c-0.283,0.323 -3.736,5.834 -10.487,6.706c-19.458,2.514 -24.515,-25.879 -4.187,-28.881c8.503,-1.256 19.733,6.217 15.984,18.916c-0.331,1.123 -0.978,2.136 -1.31,3.259Z"/><path d="M749.96,1523.165c-0.283,0.323 -3.736,5.834 -10.487,6.706c-19.458,2.514 -24.515,-25.879 -4.187,-28.881c8.503,-1.256 19.733,6.217 15.984,18.916c-0.331,1.123 -0.978,2.136 -1.31,3.259Z"/><path d="M749.96,1689.831c-0.283,0.323 -3.736,5.834 -10.487,6.706c-19.458,2.514 -24.515,-25.879 -4.187,-28.881c8.503,-1.256 19.733,6.217 15.984,18.916c-0.331,1.123 -0.978,2.136 -1.31,3.259Z"/><path d="M970.806,671.832c3.715,7.288 5.246,7.424 2.733,15.247c-3.898,12.134 -27.016,14.734 -28.863,-4.561c-0.263,-2.753 0.6,-14.593 15.364,-14.91c5.97,-0.128 5.517,1.349 10.766,4.224Z"/><path d="M970.806,838.499c3.715,7.288 5.246,7.424 2.733,15.247c-3.898,12.134 -27.016,14.734 -28.863,-4.561c-0.263,-2.753 0.6,-14.593 15.364,-14.91c5.97,-0.128 5.517,1.349 10.766,4.224Z"/><path d="M970.806,1005.166c3.715,7.288 5.246,7.424 2.733,15.247c-3.898,12.134 -27.016,14.734 -28.863,-4.561c-0.263,-2.753 0.6,-14.593 15.364,-14.91c5.97,-0.128 5.517,1.349 10.766,4.224Z"/><path d="M970.806,1171.832c3.715,7.288 5.246,7.424 2.733,15.247c-3.898,12.134 -27.016,14.734 -28.863,-4.561c-0.263,-2.753 0.6,-14.593 15.364,-14.91c5.97,-0.128 5.517,1.349 10.766,4.224Z"/><path d="M970.806,1338.499c3.715,7.288 5.246,7.424 2.733,15.247c-3.898,12.134 -27.016,14.734 -28.863,-4.561c-0.263,-2.753 0.6,-14.593 15.364,-14.91c5.97,-0.128 5.517,1.349 10.766,4.224Z"/><path d="M970.806,1505.166c3.715,7.288 5.246,7.424 2.733,15.247c-3.898,12.134 -27.016,14.734 -28.863,-4.561c-0.263,-2.753 0.6,-14.593 15.364,-14.91c5.97,-0.128 5.517,1.349 10.766,4.224Z"/><path d="M970.806,1671.832c3.715,7.288 5.246,7.424 2.733,15.247c-3.898,12.134 -27.016,14.734 -28.863,-4.561c-0.263,-2.753 0.6,-14.593 15.364,-14.91c5.97,-0.128 5.517,1.349 10.766,4.224Z"/><path d="M970.806,1838.499c3.715,7.288 5.246,7.424 2.733,15.247c-3.898,12.134 -27.016,14.734 -28.863,-4.561c-0.263,-2.753 0.6,-14.593 15.364,-14.91c5.97,-0.128 5.517,1.349 10.766,4.224Z"/><path d="M170.233,671.819c5.268,-2.883 4.819,-4.371 10.758,-4.204c16.691,0.469 15.49,13.198 15.329,14.9c-1.807,19.152 -24.9,16.88 -28.836,4.574c-2.514,-7.861 -0.972,-7.993 2.749,-15.271Z"/><path d="M170.233,838.486c5.268,-2.883 4.819,-4.371 10.758,-4.204c16.691,0.469 15.49,13.198 15.329,14.9c-1.807,19.152 -24.9,16.88 -28.836,4.574c-2.514,-7.861 -0.972,-7.993 2.749,-15.271Z"/><path d="M170.233,1171.819c5.268,-2.883 4.819,-4.371 10.758,-4.204c16.691,0.469 15.49,13.198 15.329,14.9c-1.807,19.152 -24.9,16.88 -28.836,4.574c-2.514,-7.861 -0.972,-7.993 2.749,-15.271Z"/><path d="M170.233,1338.486c5.268,-2.883 4.819,-4.371 10.758,-4.204c16.691,0.469 15.49,13.198 15.329,14.9c-1.807,19.152 -24.9,16.88 -28.836,4.574c-2.514,-7.861 -0.972,-7.993 2.749,-15.271Z"/><path d="M637.451,671.836c3.67,7.271 5.253,7.39 2.756,15.24c-3.842,12.079 -27.009,14.805 -28.864,-4.558c-0.262,-2.737 0.589,-14.592 15.363,-14.91c5.969,-0.128 5.514,1.351 10.745,4.228Z"/><path d="M637.451,838.503c3.67,7.271 5.253,7.39 2.756,15.24c-3.842,12.079 -27.009,14.805 -28.864,-4.558c-0.262,-2.737 0.589,-14.592 15.363,-14.91c5.969,-0.128 5.514,1.351 10.745,4.228Z"/><path d="M637.451,1005.169c3.67,7.271 5.253,7.39 2.756,15.24c-3.842,12.079 -27.009,14.805 -28.864,-4.558c-0.262,-2.737 0.589,-14.592 15.363,-14.91c5.969,-0.128 5.514,1.351 10.745,4.228Z"/><path d="M637.451,1171.836c3.67,7.271 5.253,7.39 2.756,15.24c-3.842,12.079 -27.009,14.805 -28.864,-4.558c-0.262,-2.737 0.589,-14.592 15.363,-14.91c5.969,-0.128 5.514,1.351 10.745,4.228Z"/><path d="M637.451,1338.503c3.67,7.271 5.253,7.39 2.756,15.24c-3.842,12.079 -27.009,14.805 -28.864,-4.558c-0.262,-2.737 0.589,-14.592 15.363,-14.91c5.969,-0.128 5.514,1.351 10.745,4.228Z"/><path d="M637.451,1505.169c3.67,7.271 5.253,7.39 2.756,15.24c-3.842,12.079 -27.009,14.805 -28.864,-4.558c-0.262,-2.737 0.589,-14.592 15.363,-14.91c5.969,-0.128 5.514,1.351 10.745,4.228Z"/><path d="M1304.176,1005.089c3.651,7.335 5.206,7.506 2.696,15.323c-3.894,12.125 -27.056,14.788 -28.78,-4.552c-0.152,-1.702 -1.285,-14.412 15.297,-14.913c5.931,-0.179 5.537,1.3 10.787,4.142Z"/><path d="M1304.176,1171.756c3.651,7.335 5.206,7.506 2.696,15.323c-3.894,12.125 -27.056,14.788 -28.78,-4.552c-0.152,-1.702 -1.285,-14.412 15.297,-14.913c5.931,-0.179 5.537,1.3 10.787,4.142Z"/><path d="M670.233,671.822c5.253,-2.872 4.802,-4.345 10.77,-4.211c16.685,0.374 15.477,13.203 15.317,14.905c-1.819,19.314 -24.909,16.636 -28.827,4.576c-2.527,-7.778 -0.995,-7.965 2.741,-15.27Z"/><path d="M670.233,838.488c5.253,-2.872 4.802,-4.345 10.77,-4.211c16.685,0.374 15.477,13.203 15.317,14.905c-1.819,19.314 -24.909,16.636 -28.827,4.576c-2.527,-7.778 -0.995,-7.965 2.741,-15.27Z"/><path d="M670.233,1005.155c5.253,-2.872 4.802,-4.345 10.77,-4.211c16.685,0.374 15.477,13.203 15.317,14.905c-1.819,19.314 -24.909,16.636 -28.827,4.576c-2.527,-7.778 -0.995,-7.965 2.741,-15.27Z"/><path d="M670.233,1171.822c5.253,-2.872 4.802,-4.345 10.77,-4.211c16.685,0.374 15.477,13.203 15.317,14.905c-1.819,19.314 -24.909,16.636 -28.827,4.576c-2.527,-7.778 -0.995,-7.965 2.741,-15.27Z"/><path d="M670.233,1338.488c5.253,-2.872 4.802,-4.345 10.77,-4.211c16.685,0.374 15.477,13.203 15.317,14.905c-1.819,19.314 -24.909,16.636 -28.827,4.576c-2.527,-7.778 -0.995,-7.965 2.741,-15.27Z"/><path d="M670.233,1505.155c5.253,-2.872 4.802,-4.345 10.77,-4.211c16.685,0.374 15.477,13.203 15.317,14.905c-1.819,19.314 -24.909,16.636 -28.827,4.576c-2.527,-7.778 -0.995,-7.965 2.741,-15.27Z"/><path d="M670.233,1671.822c5.253,-2.872 4.802,-4.345 10.77,-4.211c16.685,0.374 15.477,13.203 15.317,14.905c-1.819,19.314 -24.909,16.636 -28.827,4.576c-2.527,-7.778 -0.995,-7.965 2.741,-15.27Z"/><path d="M1137.473,838.499c3.715,7.288 5.246,7.424 2.733,15.247c-3.897,12.132 -27.014,14.736 -28.863,-4.561c-0.163,-1.705 -1.386,-14.462 15.373,-14.898c5.951,-0.155 5.5,1.334 10.757,4.212Z"/><path d="M1137.473,1005.166c3.715,7.288 5.246,7.424 2.733,15.247c-3.897,12.132 -27.014,14.736 -28.863,-4.561c-0.163,-1.705 -1.386,-14.462 15.373,-14.898c5.951,-0.155 5.5,1.334 10.757,4.212Z"/><path d="M1137.473,1171.832c3.715,7.288 5.246,7.424 2.733,15.247c-3.897,12.132 -27.014,14.736 -28.863,-4.561c-0.163,-1.705 -1.386,-14.462 15.373,-14.898c5.951,-0.155 5.5,1.334 10.757,4.212Z"/><path d="M304.077,671.856c3.693,7.27 5.248,7.462 2.673,15.19c-4.166,12.506 -26.932,14.415 -28.854,-4.527c-0.252,-2.486 0.492,-14.6 15.476,-14.911c5.992,-0.124 5.528,1.372 10.705,4.248Z"/><path d="M304.077,838.523c3.693,7.27 5.248,7.462 2.673,15.19c-4.166,12.506 -26.932,14.415 -28.854,-4.527c-0.252,-2.486 0.492,-14.6 15.476,-14.911c5.992,-0.124 5.528,1.372 10.705,4.248Z"/><path d="M304.077,1005.189c3.693,7.27 5.248,7.462 2.673,15.19c-4.166,12.506 -26.932,14.415 -28.854,-4.527c-0.252,-2.486 0.492,-14.6 15.476,-14.911c5.992,-0.124 5.528,1.372 10.705,4.248Z"/><path d="M304.077,1171.856c3.693,7.27 5.248,7.462 2.673,15.19c-4.166,12.506 -26.932,14.415 -28.854,-4.527c-0.252,-2.486 0.492,-14.6 15.476,-14.911c5.992,-0.124 5.528,1.372 10.705,4.248Z"/><path d="M304.077,1338.523c3.693,7.27 5.248,7.462 2.673,15.19c-4.166,12.506 -26.932,14.415 -28.854,-4.527c-0.252,-2.486 0.492,-14.6 15.476,-14.911c5.992,-0.124 5.528,1.372 10.705,4.248Z"/><path d="M804.079,671.854c3.696,7.276 5.267,7.436 2.795,15.222c-3.837,12.085 -27.013,14.785 -28.864,-4.558c-0.265,-2.77 0.613,-14.594 15.363,-14.91c5.985,-0.128 5.522,1.367 10.706,4.246Z"/><path d="M804.079,838.521c3.696,7.276 5.267,7.436 2.795,15.222c-3.837,12.085 -27.013,14.785 -28.864,-4.558c-0.265,-2.77 0.613,-14.594 15.363,-14.91c5.985,-0.128 5.522,1.367 10.706,4.246Z"/><path d="M804.079,1005.188c3.696,7.276 5.267,7.436 2.795,15.222c-3.837,12.085 -27.013,14.785 -28.864,-4.558c-0.265,-2.77 0.613,-14.594 15.363,-14.91c5.985,-0.128 5.522,1.367 10.706,4.246Z"/><path d="M804.079,1171.854c3.696,7.276 5.267,7.436 2.795,15.222c-3.837,12.085 -27.013,14.785 -28.864,-4.558c-0.265,-2.77 0.613,-14.594 15.363,-14.91c5.985,-0.128 5.522,1.367 10.706,4.246Z"/><path d="M804.079,1338.521c3.696,7.276 5.267,7.436 2.795,15.222c-3.837,12.085 -27.013,14.785 -28.864,-4.558c-0.265,-2.77 0.613,-14.594 15.363,-14.91c5.985,-0.128 5.522,1.367 10.706,4.246Z"/><path d="M804.079,1505.188c3.696,7.276 5.267,7.436 2.795,15.222c-3.837,12.085 -27.013,14.785 -28.864,-4.558c-0.265,-2.77 0.613,-14.594 15.363,-14.91c5.985,-0.128 5.522,1.367 10.706,4.246Z"/><path d="M804.079,1671.854c3.696,7.276 5.267,7.436 2.795,15.222c-3.837,12.085 -27.013,14.785 -28.864,-4.558c-0.265,-2.77 0.613,-14.594 15.363,-14.91c5.985,-0.128 5.522,1.367 10.706,4.246Z"/><path d="M503.566,671.822c5.268,-2.88 4.818,-4.362 10.766,-4.208c16.685,0.433 15.481,13.2 15.321,14.902c-1.819,19.293 -24.911,16.632 -28.828,4.576c-2.527,-7.778 -0.995,-7.965 2.741,-15.27Z"/><path d="M503.566,838.488c5.268,-2.88 4.818,-4.362 10.766,-4.208c16.685,0.433 15.481,13.2 15.321,14.902c-1.819,19.293 -24.911,16.632 -28.828,4.576c-2.527,-7.778 -0.995,-7.965 2.741,-15.27Z"/><path d="M503.566,1005.155c5.268,-2.88 4.818,-4.362 10.766,-4.208c16.685,0.433 15.481,13.2 15.321,14.902c-1.819,19.293 -24.911,16.632 -28.828,4.576c-2.527,-7.778 -0.995,-7.965 2.741,-15.27Z"/><path d="M503.566,1171.822c5.268,-2.88 4.818,-4.362 10.766,-4.208c16.685,0.433 15.481,13.2 15.321,14.902c-1.819,19.293 -24.911,16.632 -28.828,4.576c-2.527,-7.778 -0.995,-7.965 2.741,-15.27Z"/><path d="M503.566,1338.488c5.268,-2.88 4.818,-4.362 10.766,-4.208c16.685,0.433 15.481,13.2 15.321,14.902c-1.819,19.293 -24.911,16.632 -28.828,4.576c-2.527,-7.778 -0.995,-7.965 2.741,-15.27Z"/><path d="M336.9,671.822c5.271,-2.882 4.822,-4.366 10.765,-4.207c16.686,0.446 15.482,13.199 15.322,14.901c-1.821,19.295 -24.911,16.631 -28.828,4.576c-2.527,-7.778 -0.995,-7.965 2.741,-15.27Z"/><path d="M336.9,838.488c5.271,-2.882 4.822,-4.366 10.765,-4.207c16.686,0.446 15.482,13.199 15.322,14.901c-1.821,19.295 -24.911,16.631 -28.828,4.576c-2.527,-7.778 -0.995,-7.965 2.741,-15.27Z"/><path d="M336.9,1005.155c5.271,-2.882 4.822,-4.366 10.765,-4.207c16.686,0.446 15.482,13.199 15.322,14.901c-1.821,19.295 -24.911,16.631 -28.828,4.576c-2.527,-7.778 -0.995,-7.965 2.741,-15.27Z"/><path d="M336.9,1171.822c5.271,-2.882 4.822,-4.366 10.765,-4.207c16.686,0.446 15.482,13.199 15.322,14.901c-1.821,19.295 -24.911,16.631 -28.828,4.576c-2.527,-7.778 -0.995,-7.965 2.741,-15.27Z"/><path d="M336.9,1338.488c5.271,-2.882 4.822,-4.366 10.765,-4.207c16.686,0.446 15.482,13.199 15.322,14.901c-1.821,19.295 -24.911,16.631 -28.828,4.576c-2.527,-7.778 -0.995,-7.965 2.741,-15.27Z"/><path d="M137.349,1171.876c3.647,7.247 5.216,7.423 2.674,15.141c-4.181,12.696 -27.048,14.32 -28.829,-4.485c-0.222,-2.341 0.429,-14.611 15.512,-14.924c5.911,-0.122 5.449,1.343 10.644,4.268Z"/><path d="M836.96,671.843c5.188,-2.875 4.727,-4.367 10.709,-4.233c14.904,0.334 15.614,12.332 15.366,14.908c-1.849,19.243 -25.009,16.671 -28.864,4.558c-2.478,-7.787 -0.901,-7.946 2.788,-15.233Z"/><path d="M836.96,838.51c5.188,-2.875 4.727,-4.367 10.709,-4.233c14.904,0.334 15.614,12.332 15.366,14.908c-1.849,19.243 -25.009,16.671 -28.864,4.558c-2.478,-7.787 -0.901,-7.946 2.788,-15.233Z"/><path d="M836.96,1005.176c5.188,-2.875 4.727,-4.367 10.709,-4.233c14.904,0.334 15.614,12.332 15.366,14.908c-1.849,19.243 -25.009,16.671 -28.864,4.558c-2.478,-7.787 -0.901,-7.946 2.788,-15.233Z"/><path d="M836.96,1171.843c5.188,-2.875 4.727,-4.367 10.709,-4.233c14.904,0.334 15.614,12.332 15.366,14.908c-1.849,19.243 -25.009,16.671 -28.864,4.558c-2.478,-7.787 -0.901,-7.946 2.788,-15.233Z"/><path d="M836.96,1338.51c5.188,-2.875 4.727,-4.367 10.709,-4.233c14.904,0.334 15.614,12.332 15.366,14.908c-1.849,19.243 -25.009,16.671 -28.864,4.558c-2.478,-7.787 -0.901,-7.946 2.788,-15.233Z"/><path d="M836.96,1505.176c5.188,-2.875 4.727,-4.367 10.709,-4.233c14.904,0.334 15.614,12.332 15.366,14.908c-1.849,19.243 -25.009,16.671 -28.864,4.558c-2.478,-7.787 -0.901,-7.946 2.788,-15.233Z"/><path d="M836.96,1671.843c5.188,-2.875 4.727,-4.367 10.709,-4.233c14.904,0.334 15.614,12.332 15.366,14.908c-1.849,19.243 -25.009,16.671 -28.864,4.558c-2.478,-7.787 -0.901,-7.946 2.788,-15.233Z"/><path d="M1003.627,671.843c5.188,-2.875 4.727,-4.367 10.709,-4.233c14.894,0.333 15.614,12.316 15.366,14.908c-1.849,19.299 -24.859,16.696 -28.814,4.548c-2.532,-7.778 -0.944,-7.948 2.739,-15.223Z"/><path d="M1003.627,838.51c5.188,-2.875 4.727,-4.367 10.709,-4.233c14.894,0.333 15.614,12.316 15.366,14.908c-1.849,19.299 -24.859,16.696 -28.814,4.548c-2.532,-7.778 -0.944,-7.948 2.739,-15.223Z"/><path d="M1003.627,1005.176c5.188,-2.875 4.727,-4.367 10.709,-4.233c14.894,0.333 15.614,12.316 15.366,14.908c-1.849,19.299 -24.859,16.696 -28.814,4.548c-2.532,-7.778 -0.944,-7.948 2.739,-15.223Z"/><path d="M1003.627,1171.843c5.188,-2.875 4.727,-4.367 10.709,-4.233c14.894,0.333 15.614,12.316 15.366,14.908c-1.849,19.299 -24.859,16.696 -28.814,4.548c-2.532,-7.778 -0.944,-7.948 2.739,-15.223Z"/><path d="M1003.627,1338.51c5.188,-2.875 4.727,-4.367 10.709,-4.233c14.894,0.333 15.614,12.316 15.366,14.908c-1.849,19.299 -24.859,16.696 -28.814,4.548c-2.532,-7.778 -0.944,-7.948 2.739,-15.223Z"/><path d="M1003.627,1505.176c5.188,-2.875 4.727,-4.367 10.709,-4.233c14.894,0.333 15.614,12.316 15.366,14.908c-1.849,19.299 -24.859,16.696 -28.814,4.548c-2.532,-7.778 -0.944,-7.948 2.739,-15.223Z"/><path d="M1003.627,1671.843c5.188,-2.875 4.727,-4.367 10.709,-4.233c14.894,0.333 15.614,12.316 15.366,14.908c-1.849,19.299 -24.859,16.696 -28.814,4.548c-2.532,-7.778 -0.944,-7.948 2.739,-15.223Z"/><path d="M1003.627,1838.51c5.188,-2.875 4.727,-4.367 10.709,-4.233c14.894,0.333 15.614,12.316 15.366,14.908c-1.849,19.299 -24.859,16.696 -28.814,4.548c-2.532,-7.778 -0.944,-7.948 2.739,-15.223Z"/><path d="M1170.296,838.515c5.186,-2.876 4.723,-4.37 10.707,-4.238c14.844,0.328 15.62,12.251 15.365,14.908c-1.85,19.309 -24.86,16.678 -28.813,4.548c-2.535,-7.779 -0.945,-7.949 2.741,-15.218Z"/><path d="M1170.296,1005.182c5.186,-2.876 4.723,-4.37 10.707,-4.238c14.844,0.328 15.62,12.251 15.365,14.908c-1.85,19.309 -24.86,16.678 -28.813,4.548c-2.535,-7.779 -0.945,-7.949 2.741,-15.218Z"/><path d="M1170.296,1171.849c5.186,-2.876 4.723,-4.37 10.707,-4.238c14.844,0.328 15.62,12.251 15.365,14.908c-1.85,19.309 -24.86,16.678 -28.813,4.548c-2.535,-7.779 -0.945,-7.949 2.741,-15.218Z"/><path d="M470.746,671.854c3.697,7.277 5.274,7.462 2.708,15.206c-4.085,12.325 -27.011,14.568 -28.799,-4.533c-0.24,-2.559 0.499,-14.6 15.385,-14.919c5.985,-0.128 5.522,1.367 10.706,4.246Z"/><path d="M470.746,838.521c3.697,7.277 5.274,7.462 2.708,15.206c-4.085,12.325 -27.011,14.568 -28.799,-4.533c-0.24,-2.559 0.499,-14.6 15.385,-14.919c5.985,-0.128 5.522,1.367 10.706,4.246Z"/><path d="M470.746,1005.188c3.697,7.277 5.274,7.462 2.708,15.206c-4.085,12.325 -27.011,14.568 -28.799,-4.533c-0.24,-2.559 0.499,-14.6 15.385,-14.919c5.985,-0.128 5.522,1.367 10.706,4.246Z"/><path d="M470.746,1171.854c3.697,7.277 5.274,7.462 2.708,15.206c-4.085,12.325 -27.011,14.568 -28.799,-4.533c-0.24,-2.559 0.499,-14.6 15.385,-14.919c5.985,-0.128 5.522,1.367 10.706,4.246Z"/><path d="M470.746,1338.521c3.697,7.277 5.274,7.462 2.708,15.206c-4.085,12.325 -27.011,14.568 -28.799,-4.533c-0.24,-2.559 0.499,-14.6 15.385,-14.919c5.985,-0.128 5.522,1.367 10.706,4.246Z"/></g></svg>