<?xml version="1.0" encoding="UTF-8" standalone="no"?><!DOCTYPE svg PUBLIC "-//W3C//DTD SVG 1.1//EN" "http://www.w3.org/Graphics/SVG/1.1/DTD/svg11.dtd"><svg width="100%" height="100%" viewBox="0 0 1734 1734" version="1.1" xmlns="http://www.w3.org/2000/svg" xmlns:xlink="http://www.w3.org/1999/xlink" xml:space="preserve" xmlns:serif="http://www.serif.com/" style="fill-rule:evenodd;clip-rule:evenodd;stroke-linejoin:round;stroke-miterlimit:2;"><g id="isologo1.png"><path d="M932.809,179.089c0.805,0.631 1.611,1.262 2.416,1.893c1.169,-0.671 2.695,1.859 3.864,1.189c10.469,-6.007 68.797,-135.313 145.589,-80.165c4.542,3.262 50.915,44.03 9.177,97.879c-120.553,155.531 -136.245,155.756 -122.626,178.406c60.56,100.721 749.802,1247.032 755.624,1259.842c21.942,48.282 -15.713,93.654 -61.717,94.678c-7.469,0.166 -544.731,0.127 -545.733,0.035c-9.423,-0.862 -8.029,-6.005 -8.029,-186.757c-0,-122.526 20.269,-268.067 -113.657,-352.94c-150.846,-95.596 -372.962,-4.5 -375.491,211.271c-1.394,118.978 3.842,322.598 -3.752,327.457c-1.821,1.165 -2.038,1.032 -507.476,1.032c-2.486,0 -104.585,14.397 -110.715,-61.922c-2.188,-27.242 5.625,-32.668 121.563,-225.898c51.532,-85.886 644.068,-1073.447 644.142,-1073.583c5.987,-11.046 -8.346,-22.935 -61.302,-89.523c-73.316,-92.188 -100.291,-115.941 -71.079,-163.96c13.906,-22.858 68.845,-52.121 114.156,3.656c47.022,57.883 47.176,62.67 51.943,58.926c10.581,-8.31 -22.679,-126.208 25.287,-166.008c36.954,-30.663 106.944,-13.554 108.392,56.461c0.745,36 -0.417,99.391 -0.576,108.032Z" style="fill:#ff5200;fill-opacity:1;"/><path d="M950.68,1326.922c31.161,46.241 27.361,50.048 27.361,310.833c0,86.272 3.72,95.115 -12.886,95.151c-15.996,0.034 -168.822,0.364 -199.953,-0.019c-10.338,-0.127 -9.733,-8.468 -9.747,-11.776c-1.337,-334.219 -2.951,-334.776 7.234,-361.882c21.231,-56.504 110.805,-111.063 187.99,-32.307Z" style="fill:#ff5200;fill-opacity:1;"/></g></svg>