<?xml version="1.0" encoding="UTF-8" standalone="no"?><!DOCTYPE svg PUBLIC "-//W3C//DTD SVG 1.1//EN" "http://www.w3.org/Graphics/SVG/1.1/DTD/svg11.dtd"><svg width="100%" height="100%" viewBox="0 0 1865 1868" version="1.1" xmlns="http://www.w3.org/2000/svg" xmlns:xlink="http://www.w3.org/1999/xlink" xml:space="preserve" xmlns:serif="http://www.serif.com/" style="fill-rule:evenodd;clip-rule:evenodd;stroke-linejoin:round;stroke-miterlimit:2;"><g id="Background"><path d="M723.902,1258.823c-66.8,76.217 -58.121,88.106 -58.121,343.804c-0,259.187 0.922,262.709 -5.952,264.245c-2.909,0.65 -530.791,-0.332 -587.928,0.478c-97.398,1.381 -91.515,-131.141 -8.443,-133.211c23.526,-0.586 24.247,1.542 29.064,-2.609c5.057,-4.359 479.358,-890.252 735.67,-1363.322c27.007,-49.846 28.583,-51.932 20.765,-66.676c-116.756,-220.194 -124.261,-222.631 -112.629,-256.548c13.698,-39.942 84.738,-76.406 125.009,-1.728c3.257,6.04 35.75,66.294 40.847,75.436c17.032,30.546 27.184,60.724 35.654,45.985c55.369,-96.348 69.534,-168.23 134.218,-163.818c11.894,0.811 90.323,25.447 47.216,106.758c-107.119,202.052 -113.383,203.253 -106.507,216.259c191.694,362.577 554.145,1030.039 602.68,1119.419c153.263,282.239 149.477,290.027 164.676,290.392c8.17,0.196 43.258,-5.625 69.638,24.245c31.46,35.623 14.273,107.841 -52.815,109.103c-13.887,0.261 -561.505,-0.37 -587.527,0.32c-12.718,0.337 -10.297,-7.021 -10.307,-135.557c-0.031,-381.901 6.513,-388.759 -41.642,-452.742c-71.766,-95.353 -177.77,-77.623 -285.575,-78.367c-75.651,-0.522 -115.274,29.631 -147.99,58.134Z" style="fill:#d97757;fill-opacity:1;"/><path d="M1037.145,1346.214c32.893,30.593 28.356,36.495 28.356,214.746c-0,301.453 0.268,302.014 -1.869,304.238c-2.893,3.01 -259.34,3.174 -262.643,0c-3.233,-3.107 -2.777,-469.624 -0.283,-479.324c16.411,-63.826 75.635,-51.362 171.188,-51.854c33.956,-0.175 35.185,-3.662 65.251,12.194Z" style="fill:#d97757;fill-opacity:1;"/></g></svg>