<?xml version="1.0" encoding="UTF-8" standalone="no"?><!DOCTYPE svg PUBLIC "-//W3C//DTD SVG 1.1//EN" "http://www.w3.org/Graphics/SVG/1.1/DTD/svg11.dtd"><svg width="100%" height="100%" viewBox="0 0 8267 8384" version="1.1" xmlns="http://www.w3.org/2000/svg" xmlns:xlink="http://www.w3.org/1999/xlink" xml:space="preserve" xmlns:serif="http://www.serif.com/" style="fill-rule:evenodd;clip-rule:evenodd;stroke-linejoin:round;stroke-miterlimit:2;"><g id="Background"><path d="M2831.692,53.442c350.746,-188.787 427.571,188.292 1349.067,1601.138c22.25,34.113 39.846,-5.458 1026.096,-1500.804c199.713,-302.804 493.675,-98.042 503.325,98.762c8.992,183.354 -1085.617,1684.671 -1189.883,1891.954c-24.083,47.883 3381.317,5293.338 3712.908,5836.837c75.537,123.808 7.858,340.567 -185.883,382.308c-146.433,31.55 -7140.238,7.288 -7761.121,5.133c-212.367,-0.737 -311.429,-157.692 -280.729,-321.308c18.125,-96.583 3638.558,-5512.033 3851.779,-5853.475c33.112,-53.021 12.225,-60.804 -446.888,-777.133c-694.963,-1084.321 -806.288,-1159.254 -578.675,-1363.421l-1651.342,7132.408c-404.063,616.338 -452.879,659.567 -391.492,659.988c245.717,1.683 3038.325,20.821 3071.513,-8.529c50.012,-44.229 -57.088,-1458.45 62.408,-1623.258c122.446,-168.883 464.896,-145.421 469.258,184.812c7.883,596.413 -23.846,1437.604 25.192,1445.146c17.129,2.633 2648.075,-0.196 3056.9,1.538c111.863,0.475 4.696,-69.996 -716.508,-1200.796c-203.713,-319.404 -2503.896,-3925.95 -2554.696,-3987.263c-27.167,-32.792 -1049.229,1564.108 -3022.583,4528.367l1651.342,-7132.408l0.013,0.004Z" style="fill:#7A3B4A;"/></g></svg>