<?xml version="1.0" encoding="UTF-8" standalone="no"?><!DOCTYPE svg PUBLIC "-//W3C//DTD SVG 1.1//EN" "http://www.w3.org/Graphics/SVG/1.1/DTD/svg11.dtd"><svg width="100%" height="100%" viewBox="0 0 2134 2134" version="1.1" xmlns="http://www.w3.org/2000/svg" xmlns:xlink="http://www.w3.org/1999/xlink" xml:space="preserve" xmlns:serif="http://www.serif.com/" style="fill-rule:evenodd;clip-rule:evenodd;stroke-linejoin:round;stroke-miterlimit:2;"><g id="Background"><path d="M579.013,1445.784c-8.956,21.813 -15.69,40.41 -51.204,65.723c-21.431,15.275 -61.492,22.522 -83.804,18.451c-35.497,-6.476 -55.028,-17.643 -75.554,-40.102c-18.4,-20.134 -24.649,-44.068 -26.001,-44.516c-0.984,-0.325 -1.909,0.94 -2.943,0.999c-0.848,0.048 -1.675,-1.038 -2.451,-0.693c-0.777,0.346 -2.327,9.113 -18.314,8.662c-88.291,-2.491 -94.207,5.632 -102.641,-11.223c-3.458,-6.911 -6.041,-32.038 -11.018,-35.195c-2.988,-1.895 -13.345,-1.726 -19.667,-1.626c-12.225,0.195 -11.032,4.444 -11.064,16.653c-0.051,19.539 1.519,31.85 -22.286,32.075c-61.244,0.579 -62.174,0.193 -67.138,-1.865c-8.755,-3.63 -9.148,-16.066 -9.198,-17.658c-0.113,-3.585 -0.105,-84.299 -0.005,-87.603c0.698,-23.073 17.594,-19.543 47.19,-19.543c33.409,-0 45.541,-2.195 49.997,11.261c3.274,9.883 -0.74,29.366 3.867,33.703c2.843,2.676 18.517,2.362 20.597,-0.756c1.685,-2.527 1.206,-2.865 -6.746,-37.363c-4.141,-17.966 -48.817,-211.788 -52.028,-224.513c-1.481,-5.87 -7.931,-34.445 -8.608,-37.443c-6.152,-27.253 10.746,-26.267 34.713,-33.202c89.122,-25.791 94.875,-21.668 96.465,-33.678c0.251,-1.896 0.143,-109.548 0.242,-145.912c0.039,-14.264 2.784,-33.445 -17.606,-34.468c-13.51,-0.678 -18.737,3.089 -29.647,-15.282c-43.316,-72.932 -45.916,-73.478 -42.904,-84.114c1.992,-7.032 10.793,-14.883 16.864,-21.616c14.416,-15.986 13.914,-16.358 29.501,-33.057c11.175,-11.972 13.094,-10.227 46.959,-10.227c246.321,-0 246.447,0.156 250.001,-1.237c2.513,-0.984 3.341,-0.711 39.265,-57.179c10.231,-16.082 18.263,-13.669 35.734,-13.67c248.095,-0.005 248.259,-0.187 253.493,1.666c14.771,5.229 9.395,34.834 10.292,60.787c0.308,8.909 4.81,9.567 11.193,9.63c0.254,0.003 474.88,0.002 475.043,0c12.918,-0.179 11.285,-4.935 11.299,-17.906c0.011,-9.854 1.992,-18.05 -6.977,-21.343c-5.942,-2.182 -6.548,-1.565 -10.27,-6.704c-5.017,-6.929 -4.146,-23.022 14.125,-23.788c2.686,-0.113 2.634,-0.106 450.136,-0.105c15.255,0 46.82,-5.033 61.389,27.417c7.937,17.678 -0.005,38.877 9.199,41.854c6.667,2.157 36.229,-2.145 46.335,3.099c11.986,6.219 5.013,23.616 4.242,25.539c-27.146,67.727 -30.805,72.011 -30.995,83.168c-0.013,0.771 -0.135,240.748 0.072,241.943c1.092,6.32 7.227,6.66 9.802,6.822c17.977,1.13 39.763,-6.661 40.051,22.125c0.12,12.003 0.033,11.937 0.223,12.78c1.989,8.828 5.865,4.622 34.645,5.826c22.854,0.956 19.497,18.44 19.502,43.867c0.038,190.375 -0.24,190.316 -0.456,191.337c-3.858,18.213 -23.895,13.564 -43.964,14.094c-9.079,0.24 -9.831,2.149 -9.925,11.204c-0.481,46.381 -0.888,46.858 1.804,49.799c3.059,3.343 3.901,1.609 28.905,2.459c12.617,0.429 13.777,-3.344 13.889,-10.526c0.293,-18.836 -3.729,-35.749 19.495,-36.234c5.293,-0.11 59.611,-1.244 66.173,0.589c14.344,4.007 12.262,11.728 12.273,73.111c0.008,39.54 3.11,52.477 -20.194,52.882c-67.533,1.173 -69.092,-0.42 -73.194,-4.615c-8.703,-8.897 -1.068,-37.646 -7.337,-42.387c-3.501,-2.648 -35.704,-2.505 -39.033,-0.128c-9.422,6.729 9.964,45.159 -22.003,46.158c-8.507,0.266 -375.087,-0.379 -400.057,0.315c-15.401,0.428 -17.402,-8.577 -18.132,-8.839c-0.92,-0.331 -1.8,0.983 -2.777,0.946c-0.983,-0.037 -1.797,-1.499 -2.718,-1.152c-1.264,0.478 -10.431,38.862 -48.169,63.662c-31.522,20.715 -53.511,20.683 -65.768,21.654c-12.514,0.991 -41.776,-2.207 -63.404,-14.167c-4.549,-2.515 -29.996,-16.587 -47.254,-44.591c-3.889,-6.31 -8.679,-18.521 -9.328,-20.176c-1.379,-3.515 -1.112,-4.466 -4.873,-4.538c-5.562,-0.107 -4.288,6.112 -16.638,6.857c-5.401,0.326 -612.471,-0.358 -637.606,0.344c-12.748,0.356 -15.911,-5.837 -16.74,-6.297c-0.303,-0.168 -0.443,0.498 -4.247,-0.839c-1.239,-0.435 -0.884,-0.964 -2.09,-1.388l-363.118,-693.762c3.632,7.185 3.529,7.186 3.923,7.76c6.885,10.051 16.792,28.973 20.905,32.589c3.221,2.831 25.009,5.83 32.197,5.357c8.9,-0.586 8.806,-1.034 37.496,-0.971c21.667,0.047 21.683,2.118 33.2,0.4c19.414,-2.895 19.495,-2.064 21.18,-2.326c7.82,-1.214 6.592,-12.977 6.653,-13.709c1.652,-19.718 17.823,-18.548 23.586,-14.404c13.297,9.561 1.803,26.279 15.223,28.182c1.403,0.199 139.757,0.027 150.146,0.106c16.61,0.126 19.853,3.602 33.354,2.619c34.971,-2.546 70.743,0.423 78.964,-0.665c10.509,-1.391 10.478,-0.984 21.029,-0.984c266.667,-0.329 533.333,-0.657 800,-0.986c260.453,0 260.476,-0.223 271.072,1.787c11.943,2.265 15.83,0.131 28.931,-0.008c58.258,-0.617 59.887,1.704 62.532,-3.003c0.891,-1.586 0.909,-15.346 0.91,-16.682c0.03,-23.108 2.683,-23.073 1.887,-24.906c-1.855,-4.272 -21.398,-3.101 -23.666,-3.101c-1614.795,0.134 -1614.865,-0.022 -1615.678,0.33c-1.421,0.616 -2.421,1.998 -3.843,2.614l363.118,693.762l-366.926,-721.405c-3.847,5.234 -6.543,4.479 -5.385,10.894c0.83,4.596 2.926,3.15 32.881,3.15c1622.801,-0.005 1622.808,0.075 1623.898,-0.397c3.944,-1.705 7.494,-13.329 15.08,-31.202c0.294,-0.693 3.091,-7.282 2.91,-8.948c-0.454,-4.198 -7.788,-4.211 -8.55,-4.212c-538.89,-0.373 -1077.78,-0.746 -1616.669,-1.119c-16.843,-0.012 -16.929,2.064 -28.299,14.486c-1.27,1.387 -14.628,15.981 -15.865,17.349l366.926,721.405l1187.732,-601.966c-0.163,-0.814 0.019,-13.072 -10.541,-16.604c-3.971,-1.328 -15.287,-1.366 -16.621,-1.37c-18.002,-0.06 -175.264,-0.583 -225.024,0.002c-6.929,0.081 -8.407,-0.719 -10.701,5.776c-0.333,0.944 -0.172,0.961 -0.216,128.796c-0.019,54.567 -1.243,57.911 6.577,59.424c0.872,0.169 0.879,0.149 200.197,0.149c40.22,-0 52.696,2.446 55.782,-13.452c1.057,-5.446 -0.306,-115.264 0.546,-162.72l-1187.732,601.966l633.366,-613.177c-3.498,9.911 -2.995,10.106 -2.995,56.977c-0,118.323 -0.494,118.968 2.973,123.654c5.807,7.849 7.733,6.753 85.56,6.753c168.748,0 169.075,0.166 170.835,-1.238c3.998,-3.19 3.362,-4.245 3.347,-58.336c-0.036,-127.222 0.332,-127.217 -0.331,-128.877c-2.646,-6.624 -4.161,-5.64 -11.332,-5.695c-0.278,-0.002 -224.043,-0.001 -225.02,-0c-1.578,0.002 -15.381,0.015 -19.47,3.143c-1.345,1.029 -2.221,2.59 -3.566,3.619l-633.366,613.177l1325.188,-120.467c0.368,-0.846 2.267,-1.475 2.819,-6.484c0.037,-0.337 0.034,-0.31 0.065,-4.241c0.24,-30.85 0.303,-30.895 -0.488,-33.451c-1.677,-5.416 -10.445,-4.278 -29.514,-4.278c-928.772,-0 -928.68,-0.002 -929.182,0.015c-9.807,0.334 -9.642,3.1 -9.659,12.696c-0.046,26.078 -0.648,33.967 3.077,35.884c1.059,0.545 1.168,0.299 314.93,0.465c16.73,0.009 16.644,1.14 33.333,1.148c172.589,0.091 172.567,0.934 187.511,-0.368c24.992,-2.177 406.376,0.501 427.106,-1.387l-1325.188,120.467l974.637,-263.445c-0.302,2.862 -1.382,2.827 0.35,19.728c1.615,15.767 1.134,31.526 0.728,32.84c-1.425,4.615 -10.023,4.679 -10.978,4.686c-36.538,0.272 -38.977,0.954 -43.902,-9.247c-0.446,-0.924 -3.623,-11.472 -10.165,-11.985c-8.648,-0.678 -8.606,0.168 -108.434,0.168c-435.469,-0 -435.439,-0.034 -437.476,0.283c-6.96,1.085 -5.534,8.139 -5.531,33.271c0.001,10.433 -0.969,13.856 9.802,14.655c0.145,0.011 0.118,0.01 929.039,0.01c10.157,0 26.213,0.749 28.667,-2.465c1.641,-2.149 1.448,-9.675 1.391,-33.04c-0.023,-9.473 0.328,-12.249 -9.207,-12.689c-19.647,-0.905 -19.653,-0.05 -245.852,-0.026c-1.288,0 -14.86,0.002 -16.084,0.806c-6.287,4.132 4.339,19.999 -13.082,20.257c-36.478,0.539 -37.574,-0.164 -40.291,-1.905c-1.804,-1.156 -2.626,-1.683 -12.231,-23.827c-12.299,-28.355 -9.129,-29.977 -11.402,-31.379c-0.364,-0.224 -0.484,1.615 -5.343,-0.142l-974.637,263.445l1194.93,-399.99c-11.509,5.8 -12.057,5.049 -71.86,5.049c-484.498,-0 -484.472,0.049 -487.241,-0.397c-11.309,-1.821 -15.957,-8.341 -25.126,-8.437c-18.01,-0.188 -17.988,0.386 -225.133,0.386c-6.835,-0 -22.185,-0.606 -24.523,1.752c-2.094,2.112 -2.649,2.672 -1.828,37.134c0.245,10.285 3.551,9.643 13.842,9.655c76.035,0.088 944.676,1.099 950.439,-0.461c5.567,-1.507 4.728,-10.354 4.571,-25.906c-0.128,-12.698 -4.761,-11.204 -17.501,-11.23c-6.138,-0.013 -13.925,0.542 -20.634,-1.788c-8.691,-3.019 -8.381,-8.056 -16.642,-9.031c-4.94,-0.583 -28.385,0.483 -62.763,-0.434c-8.176,-0.218 -8.115,0.446 -15.601,3.707l-1194.93,399.99l-161.252,-437.367c-7.688,1.165 -14.613,1.802 -14.97,6.242c-0.603,7.501 7.041,5.331 45.126,5.331c118.799,-0 119.13,0.338 124.417,-2.348c9.454,-4.802 7.987,-11.925 7.987,-65.559c0,-112.662 0.169,-112.814 -1.1,-115.972c-4.884,-12.149 -13.662,-10.268 -64.638,-10.268c-50.034,-0 -49.977,0.01 -100.024,-0.151c-0.88,-0.003 -8.681,-0.028 -10.653,2.73c-5.002,6.997 5.863,9.32 6.776,9.516c5.313,1.136 16.667,-0.165 17.005,22.472c0.035,2.321 0.095,126.307 -0.033,129.19c-0.655,14.847 -6.128,16.514 -9.894,18.818l161.252,437.367l1008.65,-258.686c2.547,9.303 2.309,9.464 2.95,9.997c0.127,0.106 6.053,0.312 6.144,0.217c2.333,-2.458 -3.578,-24.149 -4.57,-40.918c-0.501,-8.472 -0.781,-8.394 -1.226,-16.917c-0.486,-9.306 1.762,-10.107 11.087,-10.167c1.162,-0.007 295.503,0.016 295.786,-0.013c8.359,-0.852 9.188,-4.326 9.287,-10.528c0.04,-2.491 1.645,-15.918 -4.606,-17.59c-3.057,-0.818 -957.085,-0.595 -959.177,-0.118c-5.089,1.162 -5.349,5.571 -5.064,17.72c0.294,12.566 6.423,10.242 30.477,10.242c520.13,-0 520.125,-0.011 520.664,0.092c0.991,0.19 6.256,1.078 8.529,6.289c7.771,17.813 14.562,38.686 15.674,42.104c5.905,18.151 4.69,18.721 5.963,19.774c0.116,0.096 6.333,0.188 6.416,0.097c2.214,-2.442 -1.303,-2.97 -2.09,-41.144c-0.241,-11.69 -1.355,-23.882 2.66,-25.778c1.847,-0.872 1.917,-0.905 25.498,-1.426c10.752,-0.238 11.507,3.886 19.067,19.7c1.442,3.015 4.885,10.22 16.532,38.369l-1008.65,258.686l908.536,-239.855c-0.458,-1.323 -0.236,-2.819 -0.694,-4.142c-0.003,-0.01 -13.5,-29.697 -15.367,-31.773c-3.294,-3.663 -10.159,-3.506 -11.089,-3.485c-40.897,0.933 -513.166,-0.47 -517.218,0.728c-6.465,1.91 -4.94,13.496 -4.939,26.493c0.001,10.667 -0.862,14.111 9.802,14.655c0.776,0.04 514.004,-0.034 529.004,0.039c6.127,0.03 5.97,-0.775 10.5,-2.516l-908.536,239.855l64.737,-179.035c12.02,-0.376 11.942,-0.237 12.97,-0.386c7.094,-1.032 6.486,-3 6.548,-10.128c0.299,-34.011 0.351,-36.917 -6.992,-37.617c-1.153,-0.11 -451.956,-0.219 -454.219,0.054c-3.787,0.456 -4.603,0.315 -5.153,4.09c-0.201,1.378 5.155,23.045 5.648,25.038c3.483,14.092 1.78,18.959 16.236,18.955c141.654,-0.002 283.309,-0.004 424.963,-0.006l-64.737,179.035l-362.421,-135.785c2.501,9.797 2.58,15.806 10.706,15.958c9.648,0.18 9.612,-1.02 120.616,-0.025c14.618,0.131 14.536,1.133 29.17,1.139c182.521,0.071 182.521,-0.397 187.53,-0.814c10.643,-0.886 92.179,0.217 94.699,-0.686c3.569,-1.279 3.879,-6.289 3.918,-6.924c0.062,-0.997 0.039,-32.709 0.024,-33.171c-0.284,-8.555 -2.643,-8.551 -11.167,-8.612c-36.168,-0.258 -391.004,-0.024 -425.005,-0.001c-1.204,0.001 -13.674,0.009 -14.991,1.299c-2.844,2.787 -1.046,3.462 4.5,31.838l362.421,135.785l920.751,-69.663c7.132,11.384 9.708,8.222 23.153,8.136c23.377,-0.149 375.206,0.318 378.556,-0.263c5.024,-0.871 4.994,-1.806 5.547,-6.828c0.096,-0.874 0.096,-32.626 0,-33.5c-0.754,-6.841 -2.324,-6.915 -9.215,-7.066c-3.272,-0.072 -394.775,0.032 -404.042,-0.058c-0.97,-0.009 -10.116,-0.097 -11.743,3.036c-0.574,1.104 -0.006,1.168 6.144,13.222c5.934,11.631 5.657,11.689 11.6,23.32l-920.751,69.663l64.737,-237.369c16.157,-0.505 16.286,-0.627 17.293,-1.584c2.894,-2.748 2.171,-17.717 2.17,-21.415c-0.001,-13.599 2.424,-19.29 -11.148,-18.892c-11.034,0.323 -10.959,0.287 -83.316,0.287c-345.186,-0 -345.181,-0.929 -375.182,-0.009c-11.305,0.347 -8.3,6.411 -6.605,14.093c4.435,20.103 5.469,25.597 10.246,26.908c2.498,0.686 2.508,0.611 446.541,0.611l-64.737,237.369l-202,-354.104c12.011,0.333 11.927,0.61 16.818,0.163c21.809,-1.99 197.141,-0.451 258.282,-0.907c7.094,-0.053 8.937,1.092 10.991,-5.722c0.389,-1.29 0.131,-30.462 0.107,-33.111c-0.08,-8.989 -2.143,-9.607 -11.098,-9.706c-46.147,-0.511 -46.097,-0.309 -50.106,-0.365c-10.97,-0.153 -14.948,6.029 -25.301,8.186c-6.079,1.267 -125.85,0.374 -162.141,0.626c-12.479,0.087 -11.489,4.665 -11.919,13.758c-0.064,1.348 -0.563,11.893 -5.422,15.976c-3.048,2.561 -12.584,3.76 -16.596,1.966c-11.375,-5.087 -8.687,-14.797 -9.395,-22.055c-1.663,-17.065 -14.613,-4.03 -34.864,-14.412c-11.43,-5.86 -12.041,-3.711 -30.12,-3.681c-20.848,0.034 -21.167,-2.872 -41.318,2.623c-89.237,24.333 -89.516,23.342 -96.905,26.504c-7.286,3.118 -5.486,18.667 4.643,19.399c7.349,0.531 183.497,-0.997 204.344,0.759l202,354.104l15.866,-47.853c1.909,4.781 7.535,22.426 15.696,24.36c2.908,0.689 2.901,0.614 429.008,0.614c186.882,0 187.182,0.22 190.583,-1.677c4.498,-2.509 13.029,-22.546 12.776,-23.286c-0.532,-1.56 -2.59,-2.117 -4.115,-2.742c-1.256,-0.515 -15.262,-0.291 -15.911,-0.29c-86.111,0 -172.222,0 -258.333,0c-25.08,-0 -24.985,-1.149 -50,-1.149c-241.756,0 -241.73,-0.037 -245.84,0.274c-31.619,2.393 -66.299,-0.318 -69.935,1.229c-1.457,0.619 -2.472,2.047 -3.929,2.667l-15.866,47.853l256.403,-566.76c-84.447,-0 -84.653,-0.221 -88.016,1.422c-3.671,1.793 -3.111,3.111 -3.111,67.471c-0,64.883 -0.355,65.407 2.076,68.046c2.993,3.249 3.738,2.776 68.218,2.776c34.13,-0 40.124,1.81 40.975,-8.382c0.748,-8.964 0.051,-8.937 0.03,-112.44c-0,-1.245 -0.003,-13.567 -1.107,-15.523c-1.804,-3.196 -9.423,-3.09 -19.064,-3.37l-256.403,566.76l691.695,-101.446c-0.544,-1.6 2.341,-3.141 1.797,-4.741c-1.07,-3.145 -11.101,-3.056 -12.099,-3.047c-19.576,0.173 -309.374,-0.233 -316.177,0.223c-6.479,0.435 -5.956,5.603 -5.99,11.129c-0.212,33.56 -0.058,34.471 3.021,35.917c0.93,0.437 21.457,0.437 23.323,0.437c256.714,-0.001 256.697,0.524 279.016,0.245c9.632,-0.12 11.079,-9.206 27.109,-40.163l-691.695,101.446l-404.039,-320.064c0.742,0.392 1.104,1.319 1.845,1.711c3.422,1.809 3.678,1.59 133.598,1.59c330.783,-0 330.776,-0.033 341.649,0.287c13.582,0.399 11.359,-5.243 11.173,-18.872c-0.123,-9.006 -2.168,-9.641 -11.126,-9.706c-0.405,-0.003 -466.577,-0.001 -466.697,-0.001c-1.028,-0 -11.64,-0.002 -12.821,0.935c-3.762,2.987 -3.015,3.652 -2.017,8.4c1.678,7.986 1.819,7.87 4.396,15.656l404.039,320.064l577.237,-462.533c-32.557,0.678 -202.901,0.018 -208.526,0.283c-12.644,0.594 -9.458,5.879 -9.472,18.547c-0.018,15.868 -0.544,26.33 1.838,28.748c2.057,2.088 2.499,1.775 70.327,1.775c153.697,0 153.637,0.913 166.965,0.032c5.107,-0.338 6.405,-0.678 5.862,-5.76c-0.296,-2.776 -2.042,-5.2 -2.906,-7.854c-3.364,-10.325 -0.432,-30.241 -3.3,-33.576c-1.877,-2.182 -19.115,-2.194 -20.787,-2.195l-577.237,462.533l362.298,-579.579c-0.565,1.232 -2.404,0.911 -3.011,6.562c-0.093,0.868 -0.06,33.14 -0.036,33.574c0.545,9.777 3.984,8.45 13.818,8.462c17.335,0.021 208.49,0.251 216.682,-0.014c11.861,-0.384 9.712,-5.023 9.728,-16.872c0.036,-26.46 1.26,-31.515 -6.04,-31.984c-1.813,-0.116 -216.77,-0.692 -231.142,0.272l-362.298,579.579l610.702,-635.353c-0.526,-0.201 -2.629,-3.309 -8.547,-3.263c-118.77,0.925 -235.96,-0.512 -239.794,0.644c-3.248,0.98 -3.333,4.585 -3.123,35.952c0.037,5.468 -0.504,10.683 5.983,11.124c3.05,0.207 229.481,0.603 231.157,-0.244c6.125,-3.094 -1.034,-24.227 11.305,-39.424c1.815,-2.236 1.5,-2.38 3.019,-4.791l-610.702,635.353l577.237,-520.866c-42.695,0.89 -208.627,-0.453 -213.271,0.688c-5.83,1.432 -4.738,7.988 -4.709,30.645c0.015,11.889 -2.207,16.597 9.631,16.871c1.088,0.025 220.142,0.025 220.863,0.001c9.73,-0.315 9.71,-2.999 9.728,-12.697c0.04,-22.419 0.292,-31.281 -1.455,-33.313c-1.877,-2.182 -19.115,-2.194 -20.787,-2.195l-577.237,520.866l1302.237,-237.369c20.507,-0.641 20.472,-0.503 21.65,-0.844c5.468,-1.58 4.202,-11.813 4.205,-22.155c0.004,-14.316 0.923,-19.368 -13.364,-18.893c-9.746,0.324 -9.713,0.287 -91.659,0.287c-164.627,0 -165.105,-0.214 -166.961,1.582c-1.699,1.645 -3.223,3.12 -2.181,29.484c0.293,7.413 -0.373,9.496 7.056,10.478c0.506,0.067 0.46,0.059 241.252,0.059l-1302.237,237.369l941.652,-28.237c6.384,6.519 7.483,5.358 31.418,5.358c347.501,0 347.517,0.071 349.806,-0.578c8.535,-2.419 4.511,-23.849 4.282,-24.376c-1.587,-3.65 -2.889,-3.041 -49.922,-3.041c-339.631,-0 -339.649,-0.045 -340.733,0.372c-6.389,2.46 -3.774,4.721 -0.632,10.823c0.886,1.721 0.684,1.707 1.56,3.394c0.335,0.645 0.313,0.596 4.22,8.047l-941.652,28.237l841.904,4.372c-15.607,12.423 -36.872,27.958 -73.268,10.784c-8.356,-3.943 -16.575,-12.026 -18.498,-14.679c-23.666,-32.646 -11.347,-64.709 -0.57,-76.828c0.486,-0.546 2.223,-1.507 2.12,-4.776c-0.013,-0.41 -0.102,-3.235 -3.818,-3.429c-1.648,-0.086 -1.625,0.194 -20.622,0.453c-11.197,0.152 -15.286,2.596 -20.877,27.896c-4.838,21.895 0.111,55.465 21.285,78.796c9.566,10.541 23.194,22.589 49.493,29.854c4.384,1.211 27.686,3.795 41.735,-0.372c5.652,-1.676 57.176,-14.096 69.797,-71.004c0.93,-4.196 6.224,-28.063 -4.075,-53.565c-6.417,-15.889 -11.102,-11.016 -28.195,-11.67c-8.354,-0.319 -8.767,-1.787 -11.432,0.405c-2.217,1.824 -0.421,5.811 -0.214,6.268c0.189,0.42 15.044,12.803 14.196,42.037c-0.62,21.371 -12.99,34.455 -17.058,39.828l-841.904,-4.372l-162.115,3.894c-1.004,-1.157 -6.062,-5.636 -10.394,-14.395c-1.057,-2.136 -7.422,-15.006 -6.805,-29.004c1.579,-35.821 21.063,-37.202 12.731,-43.765c-3.455,-2.722 -3.89,-1.129 -10.354,-0.889c-16.227,0.603 -16.531,-0.542 -21.487,2.045c-3.465,1.808 -8.899,14.647 -10.676,26.141c-1.323,8.554 -10.205,50.27 28.718,86.496c18.31,17.041 44.279,24.171 57.635,23.823c19.184,-0.499 19.417,0.154 37.504,-6.33c40.559,-14.54 73.2,-62.041 55.189,-117.074c-5.379,-16.437 -9.104,-14.941 -26.041,-15.063c-10.08,-0.072 -10.801,-1.9 -14.438,1.645c-3.317,3.234 0.67,5.944 0.722,6.002c10.537,11.879 11.99,26.314 12.241,28.805c5.667,56.289 -46.091,79.949 -81.819,66.367c-12.915,-4.909 -12.696,-5.408 -22.725,-14.806l162.115,-3.894l325.365,-120.39c0.433,-0.961 1.647,-1.42 2.08,-2.381c2.145,-4.759 1.015,-34.658 0.902,-37.67c-0.367,-9.725 -3.833,-8.456 -13.608,-8.48c-15,-0.036 -136.67,-0.329 -187.506,0.001c-8.662,0.056 -11.14,-0.026 -11.347,8.607c-0.021,0.866 -0.027,31.98 0.026,33.186c0.374,8.474 6.489,7.265 15.492,7.266c187.677,0.016 187.683,-0.039 193.961,-0.529l-325.365,120.39l-12.506,-804.935c-9.192,14.304 -9.658,14.024 -9.814,15.482c-0.052,0.486 -0.436,4.073 3.179,5.211c0.428,0.135 0.447,0.116 233.878,0.116c14.292,0 24.801,1.332 26.931,-4.389c0.726,-1.951 1.37,-3.678 1.038,-25.999c-0.202,-13.598 -6.034,-10.29 -19.636,-10.291c-193.282,-0.015 -193.246,0.129 -212.482,-0.279c-10.949,-0.232 -11.278,3.118 -23.095,20.15l12.506,804.935l306.403,-179.035c15.65,-0.355 20.713,0.276 21.841,-6.171c1.127,-6.436 0.203,-30.885 0.102,-33.569c-0.367,-9.725 -3.833,-8.456 -13.608,-8.48c-15,-0.036 -136.67,-0.329 -187.506,0.001c-6.773,0.044 -8.393,-1.498 -11.071,4.713c-1.045,2.424 -0.487,2.552 -0.291,32.993c0.049,7.621 0.049,9.238 7.524,10.468c0.309,0.051 0.272,0.045 183.009,0.045l-306.403,179.035l289.697,-395.667c-23.223,-0.484 -118.784,-0.436 -133.291,0.026c-16.995,0.542 -15.96,-6.435 -24.741,-7.601c-2.836,-0.376 -12.026,0.05 -13.024,0.871c-3.767,3.099 -2.72,3.741 -2.77,8.688c-0.027,2.65 -0.32,31.744 0.122,33.132c2.188,6.859 4.024,5.656 11.215,5.703c49.82,0.324 172.536,0.036 187.539,0.001c10.18,-0.024 13.473,0.564 13.64,-9.661c0.567,-34.574 0.276,-34.879 -1.77,-37.026c-1.506,-1.581 -16.163,-4.018 -23.341,0.906c-6.083,4.173 -6.327,3.591 -13.581,4.961l-289.697,395.667l306.403,-237.369c17.147,-0.389 19.405,-0.943 20.54,-2.348c1.46,-1.807 1.849,-2.289 1.422,-29.01c-0.213,-13.303 -8.497,-10.247 -26.129,-10.247c-181.584,-0 -182.001,-0.187 -183.733,1.402c-2.974,2.728 -2.759,10.164 -2.633,29.69c0.049,7.621 0.049,9.238 7.524,10.468c0.309,0.051 0.272,0.045 183.009,0.045l-306.403,237.369l123.227,-316.517c21.055,-0.419 176.85,-0.45 191.503,0.042c14.483,0.487 13.977,-4.461 13.636,-18.918c-0.24,-10.164 -3.443,-9.646 -13.617,-9.662c-15.354,-0.024 -188.757,-0.293 -191.924,0.083c-7.01,0.832 -6.883,2.581 -6.953,9.622c-0.01,0.984 -0.114,11.495 0.123,12.298c1.06,3.578 2.183,4.593 2.509,4.888c1.949,1.761 2.775,-0.113 4.723,1.647l-123.227,316.517l-223.288,-106.187c-1.589,-0.629 -2.708,-2.166 -4.297,-2.796c-0.769,-0.305 -0.797,-0.225 -57.678,-0.225c-65.852,0 -67.123,-0.587 -69.304,3.266c-0.711,1.255 1.675,11.443 1.904,12.422c7.043,30.081 7.337,30.52 10.194,31.701c0.759,0.314 10.466,0.294 11.376,0.292c43.563,-0.087 81.801,0.209 82.72,-0.029c3.661,-0.947 6.887,-7.239 7.282,-8.01c13.205,-25.759 16.533,-33.621 17.803,-36.621l223.288,106.187l123.227,-83.183c21.064,-0.419 176.909,-0.45 191.503,0.042c14.669,0.495 14.645,-4.337 13.586,-19.014c-0.509,-7.056 -2.434,-6.831 -9.507,-7.035c-14.986,-0.431 -14.909,-0.032 -187.406,-0.017c-9,0.001 -15.119,-1.208 -15.492,7.266c-0.09,2.044 0.019,12.006 0.083,12.223c1.06,3.578 2.183,4.593 2.509,4.888c1.949,1.761 2.775,-0.113 4.723,1.647l-123.227,83.183l143.121,-595.553c1.384,-0.32 3.883,-2.055 13.282,-2.295c1.188,-0.03 11.5,-0.032 12.5,-0.032c123,-0.016 123.206,-0.25 129.954,2.38c4.475,1.744 3.872,2.839 8.326,4.478c1.713,0.63 17.414,0.241 18.212,-0.19c4.247,-2.293 4.286,-22.594 0.336,-25.701c-2.566,-2.018 -3,-1.776 -148.495,-1.776c-55.626,-0 -56.489,-0.574 -59.671,3.146c-0.918,1.073 -2.233,2.611 -1.592,17.579c0.208,4.86 1.952,7.024 7.305,7.202c10.445,0.349 10.587,0.183 19.842,-4.791l-143.121,595.553l1363.819,-166.627c13.324,1.191 18.565,3.005 18.698,-10.388c0.003,-0.283 0.002,-162.416 0.001,-162.532c-0.007,-0.88 -0.066,-8.601 -2.659,-10.671c-0.086,-0.068 -19.241,-7.717 -20.773,6.336c-0.977,8.961 -0.067,8.948 -0.067,112.682c-0,60.174 -0.218,60.434 1.451,62.57c0.801,1.025 2.549,0.978 3.35,2.003l-1363.819,166.627l4.014,-69.615c5.635,9.046 6.93,8.437 14.927,8.19c14.155,-0.438 58.008,0.516 61.389,-0.691c4.15,-1.481 3.98,-2.183 4.035,-6.612c0.444,-35.817 0.561,-36.27 -1.691,-38.36c-2.693,-2.5 -3.214,-2.118 -59.605,-2.118c-24.291,0 -34.802,-0.868 -36.834,3.013c-0.483,0.922 -0.023,0.985 6.18,13.24c5.931,11.718 5.725,11.705 11.598,23.339l-4.014,69.615l1126.986,-783.235c1.159,-1.141 3.205,-1.043 4.364,-2.184c3.062,-3.015 1.993,-31.194 0.915,-33.752c-1.829,-4.339 -3.448,-3.687 -67.528,-3.684c-14.791,0.001 -20.536,-2.27 -20.598,12.49c-0.051,12.072 -0.314,21.436 1.256,23.967c3.238,5.22 9.223,2.019 81.591,3.163l-1126.986,783.235l1012.583,-802.034c-0.007,-1.385 -0.075,-15.198 -0.969,-17.287c-2.003,-4.681 -15.085,-3.535 -26.045,-3.535c-55.955,-0 -56.745,-0.531 -59.815,2.911c-2.621,2.938 -1.888,12.011 -1.886,17.911c0.005,13.775 -2.028,19.317 11.715,18.893c25.946,-0.801 48.022,-0.026 66.702,-0.289c13.132,-0.185 10.748,-5.47 10.297,-18.603l-1012.583,802.034l885.389,-783.194c1.639,-1.564 6.829,0.614 6.955,-10.527c0.006,-0.525 -0.004,-20.241 -0.021,-20.707c-0.385,-10.893 -13.202,-8.427 -19.253,-8.428c-63.401,-0.007 -63.605,-0.181 -66.003,1.173c-4.109,2.319 -3.663,9.621 -3.501,27.962c0.043,4.895 -1.078,5.482 2.493,8.791c3.479,3.224 16.42,0.538 79.331,1.734l-885.389,783.194l1231.403,-783.141c7.519,-0.004 20.338,1.736 22.095,-6.113c0.064,-0.285 1.194,-19.501 -1.966,-24.929c-5.883,-10.108 -9.997,-8.673 -65.962,-8.672c-6.537,0 -15.194,-0.794 -18.437,2.166c-3.867,3.529 -2.851,11.559 -2.85,22.822c0.001,7.19 -1.147,13.831 8.567,14.395c6.505,0.378 34.54,-0.497 58.553,0.331l-1231.403,783.141l1248.07,-462.533c-22.191,0.694 -22.315,-0.146 -25.81,1.125c-6.001,2.181 -0.922,17.808 -5.742,34.89c-2.551,9.042 -4.201,9.405 -1.906,12.086c0.988,1.154 1.291,1.341 45.959,1.252c12.253,-0.024 17.324,2.642 17.626,-9.666c0.842,-34.333 0.412,-34.889 -1.413,-37.247c-2.463,-3.182 -18.723,-2.439 -28.713,-2.439l-1248.07,462.533l1216.821,-618.144c3.713,23.095 1.124,25.657 7.052,27.116c0.601,0.148 47.471,1.272 50.822,-0.655c3.728,-2.143 3.672,-3.062 3.492,-35.362c-0.028,-5.043 0.428,-10.549 -5.701,-11.079c-3.411,-0.295 -59.986,-0.539 -61.071,-0.083c-1.502,0.63 -3.777,1.101 -4.07,2.702c-0.285,1.556 2.379,0.42 9.477,17.361l-1216.821,618.144l1275.251,-579.461c-0.516,-0.045 -6.453,-0.558 -6.453,-0.558c-46.463,-0.973 -47.488,-0.294 -49.053,3.315c-1.909,4.404 -0.867,34.193 -0.763,37.166c0.185,5.302 -0.811,6.786 4.279,8.002c7.055,1.686 42.009,0.64 45.66,0.53c7.514,-0.225 8.807,-0.975 9.237,-8.468c0.025,-0.433 0.063,-32.54 -0.042,-33.49c-0.565,-5.121 -2.464,-5.585 -2.866,-6.496l-1275.251,579.461l775.485,-57.786c-4.816,6.437 -5.916,5.985 -7.459,13.919c-3.857,19.835 18.591,47.926 47.042,29.805c10.01,-6.376 22.512,-29.317 0.895,-47.788c-1.381,-1.18 -8.405,-7.181 -21.931,-5.863c-11.96,1.166 -16.333,7.821 -18.547,9.927l-775.485,57.786l-95.944,-57.831c-1.942,-1.855 -6.474,-8.793 -18.605,-9.909c-9.434,-0.868 -17.323,2.444 -19.981,4.27c-19.71,13.545 -15.398,40.101 -1.043,49.369c27.737,17.908 51.412,-9.238 47.081,-29.8c-1.657,-7.867 -2.542,-7.466 -7.452,-13.931l95.944,57.831l1256.403,-520.866c-31.771,0.993 -36.134,-1.676 -37.326,6.356c-1.019,6.867 -0.188,30.643 -0.095,33.305c0.337,9.628 4.998,8.558 16.587,8.558c35.289,0.002 40.499,0.954 42.126,-4.241c0.801,-2.557 0.792,-2.528 0.485,-33.495c-0.061,-6.11 1.551,-7.908 -4.298,-9.671c-2.635,-0.794 -16.08,-0.81 -17.479,-0.812l-1256.403,520.866l29.359,-622.086c2.963,11.881 2.843,11.852 3.604,24.098c0.587,9.445 8.872,7.292 19.274,7.293c25.302,0.002 27.598,0.534 30.445,-2.107c2.097,-1.946 1.533,-9.996 1.557,-30.065c0.001,-0.965 0.013,-10.899 -0.358,-12.054c-1.437,-4.473 -13.488,-3.392 -44.143,-3.455c-13.376,-0.027 -13.492,-0.49 -15.115,0.454c-6.112,3.552 -1.506,5.055 2.267,11.08c0.948,1.514 1.522,3.242 2.47,4.756l-29.359,622.086l64.737,-462.533c-6.278,0.131 -6.192,0.26 -12.5,0.26c-13.412,0.002 -19.189,-3.19 -19.291,10.256c-0.021,2.781 0.003,5.562 -0.03,8.343c-0.247,21.091 -7.908,24.518 -5.059,28.8c2.006,3.015 2.964,2 45.242,1.692c8.962,-0.065 10.997,-0.706 11.13,-9.708c0.531,-35.865 0.59,-36.823 -2.194,-38.071c-4.91,-2.203 -15.589,-1.565 -17.3,-1.572l-64.737,462.533l33.377,-576.465c-0.161,2.945 -0.966,17.664 -0.414,36.866c0.245,8.499 2.51,8.549 10.936,8.617c34.355,0.277 34.495,0.695 37.079,-0.762c4.044,-2.279 3.293,-13.716 3.25,-32.79c-0.002,-1.078 -0.027,-11.972 -1.552,-13.389c-2.102,-1.952 -2.396,-2.271 -34.604,-2.118c-0.906,0.004 -10.6,0.05 -11.326,0.329c-0.349,0.134 -0.248,0.239 -3.368,3.247l-33.377,576.465l64.737,-520.866c-6.278,0.131 -6.192,0.26 -12.5,0.26c-13.408,0.002 -19.184,-3.188 -19.285,10.255c-0.242,32.113 0.145,35.163 3.096,36.915c2.547,1.513 2.701,1.035 37.027,0.787c6.684,-0.048 8.335,1.473 10.893,-4.733c0.251,-0.61 0.259,-7.352 0.259,-7.992c0.029,-26.359 0.496,-32.716 -2.191,-33.921c-4.911,-2.203 -15.584,-1.565 -17.3,-1.572l-64.737,520.866l-217.529,-437.399c-3.929,-2.649 -7.508,-3.893 -8.125,-14.802c-0.759,-13.43 -0.23,-118.678 -0.178,-128.998c0.097,-19.295 -0.007,-21.316 10.976,-26.137c5.317,-2.334 7.12,-1.846 6.674,-7.571c-0.451,-5.793 -9.551,-5.07 -10.476,-4.996c-15.751,1.253 -16.33,14.699 -16.756,17.866c-1.203,8.947 -1.87,153.586 0.463,162.459c5.216,19.838 24.924,12.84 24.936,12.828c0.461,-0.473 4.057,-4.16 -0.561,-8.241c-0,-0 -6.398,-2.215 -6.954,-2.408l217.529,437.399l1470.592,-60.367c-0.015,-8.33 0.825,-21.412 -2.339,-24.29c-1.451,-1.32 -3.125,-2.844 -24.441,-1.923c-0.819,0.035 -7.384,0.319 -8.844,5.179c-0.49,1.632 -0.511,11.683 -0.513,12.7c-0.087,42.053 -0.093,42.436 2.19,44.781c3.466,3.559 28.525,3.148 31.611,0.347c2.906,-2.638 2.33,-9.412 2.335,-36.793l-1470.592,60.367l-262.043,-28.174c1.129,-2.127 2.108,-4.331 3.237,-6.458c1.319,-2.486 1.305,-2.406 2.627,-4.942c3.252,-6.237 5.946,-8.679 -0.719,-10.987c-1.157,-0.4 -10.763,-0.323 -11.699,-0.315c-68.903,0.557 -70.49,-1.218 -72.035,2.479c-1.523,3.645 3.057,19.237 4.558,21.952c2.4,4.345 9.417,3.566 42.478,3.566c24.12,-0 25.164,1.139 31.553,-5.295l262.043,28.174l-470.638,-82.336c-0.15,1.815 -0.959,3.536 -1.108,5.351c-0.023,0.278 -0.025,45 0.004,45.735c0.358,9.166 5.31,9.568 11.459,9.621c11.954,0.102 20.845,0.98 22.857,-4.312c2.118,-5.571 0.866,-54.722 0.786,-54.932c-2.582,-6.784 -9.694,-5.735 -15.289,-5.735c-1.014,-0 -11.996,-0 -12.673,0.108c-4.922,0.785 -5.608,3.869 -6.036,4.164l470.638,82.336l-195.652,-569.003c-0.179,7.354 -0.85,35.006 -0.31,91.947c0.009,0.974 0.097,10.213 6.5,10.292c0.667,0.008 4.85,0.06 6.264,-5.507c0.797,-3.139 0.662,-98.657 0.07,-100.026c-2.62,-6.059 -10.071,-5.088 -11.627,-1.284c-0.588,1.439 -0.309,3.138 -0.897,4.578l195.652,569.003l-297.942,-635.351c1.496,2.435 1.178,2.578 2.961,4.82c11.997,15.094 5.384,36.483 11.347,39.422c0.537,0.265 12.53,0.514 13.752,0.194c3.747,-0.979 3.42,-11.85 3.695,-15.404c2.018,-26.108 11.844,-23.909 10.935,-29.013c-0.77,-4.319 -14.037,-3.011 -21.678,-3.042c-6.268,-0.026 -6.19,-0.179 -12.42,-0.226c-5.966,-0.045 -8.038,3.04 -8.591,3.249l297.942,635.351l-273.185,-462.475c-2.845,0.487 -5.797,0.068 -8.643,0.555c-6.414,1.097 -4.882,3.32 -4.944,9.858c-0.333,34.998 -0.645,35.442 1.554,37.486c2.081,1.934 15.468,1.494 16.817,1.45c12.005,-0.394 6.108,-8.26 5.312,-10.206c-5.792,-14.166 -2.048,-34.676 -5.021,-37.404c-1.317,-1.209 -3.758,-0.53 -5.075,-1.739l273.185,462.475l-266.599,-556.201c-0,-1.355 -0.005,-16.275 -0.077,-16.942c-0.79,-7.308 -2.86,-6.862 -10.212,-6.894c-2.085,-0.009 -7.577,-0.2 -8.934,2.727c-0.877,1.892 -0.911,11.751 -0.914,12.775c-0.098,28.929 0.282,28.927 0.474,29.514c0.35,1.071 1.675,5.131 13.523,3.921c7.022,-0.717 6.618,-4.104 6.14,-25.101l266.599,556.201l308.32,-535.731c1.388,1.011 -0.133,5.039 10.597,4.742c11.847,-0.328 9.437,-5.08 9.452,-16.878c0.034,-26.061 1.23,-31.395 -5.831,-31.951c-9.709,-0.764 -13.652,-0.189 -14.398,7.063c-0.384,3.74 0.13,34.063 0.18,37.024l-308.32,535.731l315.127,-462.481c-1.339,1.187 -3.765,0.476 -5.104,1.663c-0.168,0.149 -2.332,-0.023 -1.913,37.927c0.099,8.933 1.911,9.936 10.88,9.699c12.403,-0.328 9.398,-5.581 9.411,-18.007c0.023,-22.291 1.019,-29.124 -4.537,-30.586c-0.678,-0.178 -0.646,-0.052 -8.736,-0.696l-315.127,462.481l-273.185,-520.808c-0.981,0.064 -10.899,0.709 -12.107,2.089c-1.454,1.661 -1.465,11.507 -1.466,12.515c-0.028,25.545 -1.489,32.312 5.665,33.325c12.273,1.739 15.187,-0.119 14.778,-12.496c-0.935,-28.285 0.346,-31.74 -1.796,-33.697c-1.32,-1.206 -3.755,-0.531 -5.074,-1.737l273.185,520.808l315.127,-520.814c-1.339,1.188 -3.766,0.476 -5.104,1.664c-2.458,2.181 -1.92,20.954 -1.909,33.777c0.009,10.309 0.526,13.002 10.802,12.717c11.847,-0.328 9.437,-5.08 9.452,-16.878c0.029,-22.145 1.082,-29.116 -4.503,-30.585c-0.678,-0.178 -0.646,-0.051 -8.738,-0.696l-315.127,520.814l133.638,-535.73c0.2,-12.056 1.019,-37.961 -1.136,-41.97c-1.822,-3.389 -14.683,-3.341 -16.104,1.207c-0.604,1.935 -1.277,37.984 0.52,42.169c2.078,4.838 13.27,3.079 13.979,2.56c1.296,-0.949 1.445,-3.016 2.741,-3.965l-133.638,535.73l126.867,-462.49c-8.134,1.369 -8.961,0.25 -10.189,2.963c-1.209,2.671 -1.163,2.785 -0.78,36.64c0.08,7.084 -0.113,8.927 6.953,9.644c9.077,0.921 10.895,-0.465 11,-9.649c0.435,-38.053 -1.819,-37.85 -1.901,-37.924c-1.331,-1.187 -3.751,-0.487 -5.083,-1.674l-126.867,462.49l126.867,-520.824c-8.137,1.37 -8.963,0.253 -10.188,2.963c-0.721,1.595 -0.771,6.904 -0.777,7.508c-0.323,34.066 -0.301,37.049 7.141,37.65c10.398,0.839 10.797,-2.293 10.806,-12.67c0.011,-12.927 0.545,-31.594 -1.899,-33.776c-1.331,-1.188 -3.752,-0.487 -5.083,-1.675l-126.867,520.824Z" style="fill-opacity:1;"/></g></svg>